<?xml version="1.0" encoding="utf-8"?>
<!-- Generator: Adobe Illustrator 26.5.1, SVG Export Plug-In . SVG Version: 6.00 Build 0)  -->
<svg version="1.1" id="Capa_1" xmlns="http://www.w3.org/2000/svg" xmlns:xlink="http://www.w3.org/1999/xlink" x="0px" y="0px"
	 viewBox="0 0 1080 1080" style="enable-background:new 0 0 1080 1080;" xml:space="preserve">
<style type="text/css">
	.st0{fill:#3C3C3B;}
	.st1{fill:#E3E3E3;}
	.st2{fill:url(#SVGID_1_);}
	.st3{fill:#FFFFFF;}
	.st4{fill:#CA9D5D;}
	.st5{fill:url(#XMLID_00000116225292967986892920000008656978832593365125_);}
	.st6{fill:url(#XMLID_00000163057001202528510690000010537005435372324287_);}
	.st7{fill:url(#XMLID_00000141457853328108931210000016370815604759530655_);}
	.st8{fill:url(#XMLID_00000049941739557698662570000009354360492218401695_);}
	.st9{fill:url(#XMLID_00000117665082093968119250000010659039052475218836_);}
	.st10{fill:url(#XMLID_00000094587602167803977600000017568007779325691322_);}
	.st11{fill:url(#XMLID_00000067233415793579132460000012833737645310799796_);}
	.st12{fill:url(#XMLID_00000015318085934929632540000011306413060407406988_);}
	.st13{fill:url(#XMLID_00000005988412716822978180000010829234409107904920_);}
	.st14{fill:url(#SVGID_00000163063478576837073190000011930752155056024724_);}
	.st15{fill:#CD9A4D;}
	.st16{fill:url(#XMLID_00000050621895133548097950000010228355471857700236_);}
	.st17{fill:#212121;}
	.st18{fill:url(#SVGID_00000090271622368142169270000012232337580460453548_);}
	.st19{fill:none;stroke:#E9C48D;stroke-width:8.2727;stroke-miterlimit:10;}
	.st20{fill:url(#XMLID_00000180350388401651525730000015546761822149819535_);}
	.st21{fill:url(#SVGID_00000097493084566879329150000014963729647915142016_);}
	.st22{fill:url(#SVGID_00000142854477468627096310000003774761170239791019_);}
	.st23{fill:url(#SVGID_00000096742872438116827610000013000675369724002993_);}
	.st24{fill:url(#SVGID_00000150067223400852019580000014859533788683825820_);}
	.st25{fill:url(#SVGID_00000121992197432097986030000015666089003303549613_);}
	.st26{fill:url(#XMLID_00000036942954793096476620000001221982272417821079_);}
	.st27{fill:url(#XMLID_00000003104075371617171420000002649841388732702365_);}
	.st28{fill:url(#XMLID_00000145017698181739110140000014300018480546134943_);}
	.st29{fill:url(#XMLID_00000070814256950352335310000008628372328571389831_);}
	.st30{fill:url(#XMLID_00000016788958494780574400000000057713754757523080_);}
	.st31{fill:none;stroke:#E9C48D;stroke-width:7.4275;stroke-miterlimit:10;}
	.st32{fill:url(#XMLID_00000082366659364849519340000001786796739060514734_);}
	.st33{fill:url(#XMLID_00000176029028747149820940000004593688981042285461_);}
	.st34{fill:#C09833;}
	.st35{fill:none;stroke:#C09833;stroke-width:9.3032;stroke-miterlimit:10;}
	.st36{fill:none;stroke:#C09833;stroke-width:8.4876;stroke-miterlimit:10;}
	.st37{fill:#010202;}
	.st38{fill:none;stroke:#C09833;stroke-width:8.7268;stroke-miterlimit:10;}
	.st39{fill:#00B1B2;}
	.st40{fill:#20B9D6;}
	.st41{fill-rule:evenodd;clip-rule:evenodd;fill:#661617;}
	.st42{fill:#661617;}
	.st43{fill-rule:evenodd;clip-rule:evenodd;fill:#F6F6F6;}
	.st44{fill:#F6F6F6;}
	.st45{fill:none;}
	.st46{fill:url(#SVGID_00000183238272240373767490000017700200669129879701_);}
	.st47{fill:url(#SVGID_00000138574402536739193390000009304122484419888006_);}
	.st48{fill:url(#SVGID_00000015333854827813908870000006472208663575434426_);}
	.st49{fill:url(#SVGID_00000134931559139482395900000017177578322713046681_);}
	.st50{fill:url(#SVGID_00000114754630858363628970000001548411638712607932_);}
	.st51{fill:url(#SVGID_00000157271709870728722180000014820737809777527724_);}
	.st52{fill:url(#SVGID_00000144308879135094158520000005625503635786646960_);}
	.st53{fill:url(#SVGID_00000173879766318329989590000016214457205121821366_);}
	.st54{fill:url(#SVGID_00000123442813658080930930000004455796160295453841_);}
	.st55{fill:url(#SVGID_00000163031744870205299090000015016789036852256408_);}
</style>
<g>
	<linearGradient id="SVGID_1_" gradientUnits="userSpaceOnUse" x1="543.1792" y1="657.8137" x2="536.7086" y2="130.4753">
		<stop  offset="0" style="stop-color:#84542D"/>
		<stop  offset="3.993928e-03" style="stop-color:#85542E"/>
		<stop  offset="0.2038" style="stop-color:#9D6D3D"/>
		<stop  offset="0.4047" style="stop-color:#B1814A"/>
		<stop  offset="0.6048" style="stop-color:#BF9054"/>
		<stop  offset="0.8037" style="stop-color:#C79A5B"/>
		<stop  offset="1" style="stop-color:#CA9D5D"/>
	</linearGradient>
	<path class="st2" d="M540,213.23L351.62,398.71L540,575.32l188.38-176.61L540,213.23z M491.51,449.22v3.54h-34.4v-3.54
		c3.09-0.52,5.44-1.62,7.06-3.32c1.62-1.69,3.75-5.38,6.38-11.07l51.45-119.4c1.36-2.88,2.04-4.83,2.04-5.86
		c0-1.92-1.84-3.36-5.53-4.32v-3.54h37.5v3.54c-3.69,1.18-5.54,2.73-5.54,4.65c0,0.81,0.68,2.65,2.03,5.53l54.11,115.08
		c3.99,8.48,6.63,13.46,7.91,14.94c1.27,1.48,4.07,2.73,8.36,3.76v3.54h-36.6v-3.54c4.38-0.59,6.57-2.21,6.57-4.87
		c0-1.18-0.82-3.47-2.49-6.86l-9.92-21.31l-9.3-20.19h0.09l-8.56-18.4l-0.17-0.36l-25.99-55.88l-49.77,117.69
		c-1.28,2.73-1.92,4.65-1.92,5.75C484.82,447.01,487.05,448.49,491.51,449.22z"/>
	<g id="XMLID_00000158025233180991278330000015791315174215299499_">
		<path id="XMLID_00000013182368647855988240000001335827722957151644_" class="st3" d="M314.16,712.47v27.06
			c0,1.49,0.24,2.56,0.71,3.19c0.47,0.64,1.4,1.13,2.78,1.5v1.75h-15.55v-1.75c1.38-0.36,2.31-0.85,2.78-1.48
			c0.47-0.62,0.71-1.69,0.71-3.22v-61.59c0-1.53-0.23-2.61-0.71-3.25c-0.47-0.63-1.4-1.12-2.78-1.44v-1.75h40.86
			c5.6,0,10.03,0.3,13.28,0.9c3.26,0.6,6.08,1.65,8.48,3.14c2.48,1.53,4.48,3.62,6,6.29c1.75,3.02,2.62,6.43,2.62,10.21
			c0,5.68-1.89,10.32-5.65,13.91c-3.77,3.58-8.94,5.63-15.52,6.14l18.93,29.41c1.13,1.81,2.77,2.72,4.91,2.72v1.75h-17.24v-1.75
			c1.78-0.29,2.67-0.8,2.67-1.52c0-0.36-0.64-1.55-1.91-3.54l-16.92-26.68H314.16z M314.16,705.38h30.17c4.11,0,7.21-0.17,9.3-0.51
			c2.09-0.34,3.94-0.97,5.54-1.88c3.75-2.19,5.62-5.84,5.62-10.97c0-5.16-1.93-8.83-5.79-11.02c-1.71-0.94-3.61-1.58-5.7-1.91
			c-2.09-0.33-5.34-0.49-9.74-0.49h-29.4V705.38z"/>
		<path id="XMLID_00000092415110833484469150000012188648823040789695_" class="st3" d="M619.08,739.53v-61.59
			c0-1.53-0.23-2.61-0.71-3.25c-0.47-0.63-1.4-1.12-2.78-1.44v-1.75h15.55v1.75c-1.38,0.36-2.31,0.85-2.78,1.47
			c-0.47,0.62-0.71,1.68-0.71,3.22v61.59c0,1.53,0.23,2.6,0.68,3.22c0.45,0.62,1.39,1.11,2.8,1.48v1.75h-15.55v-1.75
			c1.42-0.36,2.36-0.85,2.81-1.48C618.86,742.13,619.08,741.06,619.08,739.53"/>
		<path id="XMLID_00000015334142885365355640000005325911916504298375_" class="st3" d="M780.9,671.5v1.52l-51.15,65.85h45.1
			c1.52,0,2.61-0.24,3.24-0.71c0.64-0.47,1.12-1.4,1.44-2.79h1.75v14.08h-1.75c-0.33-1.38-0.81-2.31-1.44-2.78
			c-0.64-0.47-1.72-0.71-3.24-0.71h-59.84v-1.58l51.36-65.79h-44.32c-1.52,0-2.61,0.24-3.24,0.72c-0.64,0.48-1.12,1.4-1.45,2.77
			h-1.75v-14.08h1.75c0.33,1.4,0.81,2.32,1.45,2.79c0.63,0.47,1.72,0.7,3.24,0.7H780.9z"/>
		<path id="XMLID_00000123405684305518531460000008013921544154325688_" class="st3" d="M217.7,742.37
			c-0.62-0.73-1.89-3.18-3.82-7.36l-26.13-56.74c-0.66-1.42-0.98-2.33-0.98-2.73c0-0.94,0.89-1.71,2.67-2.29v-1.75h-18.11v1.75
			c1.78,0.47,2.67,1.18,2.67,2.13c0,0.51-0.33,1.47-0.98,2.89l-27.28,58.87c-1.28,2.79-2.3,4.62-3.08,5.45
			c-0.78,0.84-1.92,1.38-3.41,1.64v1.75h16.61v-1.75c-2.16-0.36-3.23-1.09-3.23-2.18c0-0.54,0.31-1.49,0.93-2.84l2.77-5.97
			l1.51-3.25l5.45-11.99h-0.01l16.75-36.8l12.56,27.55l0.08,0.18l4.13,9.07h-0.04l4.49,9.95l4.79,10.51c0.8,1.67,1.2,2.8,1.2,3.37
			c0,1.32-1.05,2.12-3.17,2.41v1.75h17.67v-1.75C219.67,743.71,218.32,743.1,217.7,742.37"/>
		<path id="XMLID_00000052078735958036188480000016441420365386488981_" class="st3" d="M528.18,742.37
			c-0.62-0.73-1.89-3.18-3.82-7.36l-26.13-56.74c-0.66-1.42-0.98-2.33-0.98-2.73c0-0.94,0.89-1.71,2.67-2.29v-1.75h-18.11v1.75
			c1.78,0.47,2.68,1.18,2.68,2.13c0,0.51-0.33,1.47-0.98,2.89l-27.28,58.87c-1.27,2.79-2.3,4.62-3.08,5.45
			c-0.78,0.84-1.92,1.38-3.41,1.64v1.75h16.61v-1.75c-2.15-0.36-3.23-1.09-3.23-2.18c0-0.54,0.31-1.49,0.93-2.84l2.77-5.97
			l1.51-3.25l5.45-11.99h-0.01l16.75-36.8l12.55,27.55l0.08,0.18l4.13,9.07h-0.04l4.49,9.95l4.79,10.51c0.8,1.67,1.2,2.8,1.2,3.37
			c0,1.32-1.06,2.12-3.17,2.41v1.75h17.67v-1.75C530.15,743.71,528.8,743.1,528.18,742.37"/>
		<path id="XMLID_00000051366641762140282060000011031348665366831032_" class="st3" d="M936.7,742.37
			c-0.62-0.73-1.89-3.18-3.82-7.36l-26.13-56.74c-0.65-1.42-0.99-2.33-0.99-2.73c0-0.94,0.89-1.71,2.68-2.29v-1.75h-18.11v1.75
			c1.78,0.47,2.68,1.18,2.68,2.13c0,0.51-0.33,1.47-0.98,2.89l-27.28,58.87c-1.27,2.79-2.3,4.62-3.08,5.45
			c-0.78,0.84-1.92,1.38-3.41,1.64v1.75h16.61v-1.75c-2.16-0.36-3.23-1.09-3.23-2.18c0-0.54,0.31-1.49,0.93-2.84l2.77-5.97
			l1.51-3.25l5.45-11.99h-0.01l16.75-36.8l12.55,27.55l0.08,0.18l4.13,9.07h-0.04l4.5,9.95l4.79,10.51c0.8,1.67,1.2,2.8,1.2,3.37
			c0,1.32-1.06,2.12-3.17,2.41v1.75h17.68v-1.75C938.67,743.71,937.32,743.1,936.7,742.37"/>
	</g>
	<g>
		<path class="st3" d="M317.11,863.14c0.32,0.42,0.93,0.63,1.83,0.63v1.16h-12.76v-1.16c0.9,0,1.51-0.21,1.84-0.63
			c0.32-0.42,0.48-0.98,0.48-1.69v-19.33h-34.21v19.33c0,0.71,0.16,1.27,0.49,1.69c0.32,0.42,0.93,0.63,1.83,0.63v1.16h-12.76v-1.16
			c0.9,0,1.51-0.21,1.84-0.63c0.32-0.42,0.48-0.98,0.48-1.69v-43.88c0-0.71-0.16-1.27-0.48-1.69c-0.33-0.42-0.94-0.63-1.84-0.63
			v-1.16h12.76v1.16c-0.9,0-1.51,0.21-1.83,0.63c-0.32,0.42-0.49,0.99-0.49,1.69v18.17h34.21v-18.17c0-0.71-0.16-1.27-0.48-1.69
			c-0.33-0.42-0.94-0.63-1.84-0.63v-1.16h12.76v1.16c-0.9,0-1.51,0.21-1.83,0.63c-0.32,0.42-0.49,0.99-0.49,1.69v43.88
			C316.62,862.16,316.78,862.73,317.11,863.14z"/>
		<path class="st3" d="M394.8,815.21c3.54,1.13,6.62,2.8,9.23,5.03s4.64,4.94,6.09,8.17c1.45,3.22,2.18,6.93,2.18,11.11
			c0,4.19-0.73,7.9-2.18,11.12c-1.45,3.22-3.48,5.93-6.09,8.12c-2.61,2.19-5.69,3.82-9.23,4.88c-3.54,1.06-7.41,1.59-11.6,1.59
			c-4.19,0-8.05-0.53-11.59-1.59c-3.55-1.06-6.62-2.69-9.23-4.88c-2.61-2.19-4.64-4.9-6.09-8.12c-1.45-3.22-2.17-6.93-2.17-11.12
			c0-4.19,0.73-7.89,2.17-11.11c1.45-3.22,3.48-5.94,6.09-8.17s5.68-3.9,9.23-5.03c3.54-1.13,7.41-1.69,11.59-1.69
			C387.39,813.52,391.26,814.09,394.8,815.21z M367.99,825.25c-3.58,3.44-5.36,8.18-5.36,14.22c0,6.04,1.79,10.78,5.36,14.22
			c3.58,3.44,8.65,5.16,15.22,5.16s11.65-1.72,15.22-5.16c3.58-3.44,5.36-8.18,5.36-14.22c0-6.04-1.79-10.78-5.36-14.22
			c-3.58-3.44-8.65-5.16-15.22-5.16S371.56,821.81,367.99,825.25z"/>
		<path class="st3" d="M460.51,863.77c0.9,0,1.52-0.21,1.84-0.63c0.32-0.42,0.48-0.98,0.48-1.69v-40.98H446.6
			c-1.23,0-2.1,0.18-2.61,0.53c-0.52,0.35-0.77,1.02-0.77,1.98h-1.16v-11.4h1.16c0,1.68,1.13,2.51,3.38,2.51h40.59
			c2.25,0,3.38-0.84,3.38-2.51h1.16v11.4h-1.16c0-0.97-0.26-1.63-0.77-1.98c-0.52-0.35-1.39-0.53-2.61-0.53h-16.23v40.98
			c0,0.71,0.16,1.27,0.48,1.69c0.32,0.42,0.93,0.63,1.84,0.63v1.16h-12.76V863.77z"/>
		<path class="st3" d="M527.1,815.89c-0.32-0.42-0.93-0.63-1.84-0.63v-1.16h40.5c1.67,0,2.73-0.15,3.19-0.44
			c0.45-0.29,0.68-0.79,0.68-1.5h1.16v11.01h-1.16c0-0.84-0.26-1.5-0.77-1.98c-0.51-0.48-1.52-0.73-3-0.73H535.7v15.27h19.62
			c1.16,0,2.1-0.19,2.85-0.58c0.74-0.39,1.12-1.1,1.12-2.13h1.16v11.7h-1.16c0-0.97-0.29-1.64-0.87-2.03
			c-0.58-0.39-1.55-0.58-2.9-0.58H535.7v16.43h32.27c1.35,0,2.36-0.24,3-0.72c0.64-0.49,0.96-1.34,0.96-2.56h1.16v11.5h-1.16
			c0-1.22-1.13-1.83-3.38-1.83h-43.29v-1.16c0.9,0,1.52-0.21,1.84-0.63c0.32-0.42,0.48-0.98,0.48-1.69v-43.88
			C527.58,816.87,527.42,816.31,527.1,815.89z"/>
		<path class="st3" d="M621.41,815.26c-0.9,0-1.51,0.23-1.83,0.68c-0.32,0.45-0.48,1.13-0.48,2.03v40.59h32.47
			c2.25,0,3.38-0.97,3.38-2.9h1.16v11.11h-1.16c0-1.22-1.13-1.83-3.38-1.83h-42.91v-1.16c0.9,0,1.51-0.21,1.84-0.63
			c0.32-0.42,0.48-0.98,0.48-1.69v-43.88c0-0.71-0.16-1.27-0.48-1.69c-0.33-0.42-0.94-0.63-1.84-0.63v-1.16h12.76V815.26z"/>
		<path class="st3" d="M689.26,815.89c-0.33-0.42-0.94-0.63-1.84-0.63v-1.16h40.49c1.68,0,2.74-0.15,3.19-0.44
			c0.45-0.29,0.68-0.79,0.68-1.5h1.16v11.01h-1.16c0-0.84-0.26-1.5-0.77-1.98c-0.51-0.48-1.51-0.73-3-0.73h-30.15v15.27h19.62
			c1.16,0,2.11-0.19,2.85-0.58c0.74-0.39,1.11-1.1,1.11-2.13h1.16v11.7h-1.16c0-0.97-0.29-1.64-0.87-2.03
			c-0.58-0.39-1.55-0.58-2.9-0.58h-19.81v16.43h32.28c1.35,0,2.35-0.24,3-0.72c0.64-0.49,0.97-1.34,0.97-2.56h1.16v11.5h-1.16
			c0-1.22-1.13-1.83-3.38-1.83h-43.29v-1.16c0.9,0,1.51-0.21,1.84-0.63c0.32-0.42,0.48-0.98,0.48-1.69v-43.88
			C689.74,816.87,689.57,816.31,689.26,815.89z"/>
		<path class="st3" d="M774.97,849.67c-0.2,0.45-0.29,0.87-0.29,1.26c0,0.9,0.56,1.83,1.69,2.8c1.13,0.97,2.61,1.85,4.45,2.66
			c1.83,0.81,3.91,1.47,6.23,1.98c2.32,0.52,4.67,0.77,7.05,0.77c6.12,0,10.55-0.9,13.29-2.71c2.74-1.8,4.11-4.12,4.11-6.96
			c0-1.35-0.34-2.48-1.02-3.38c-0.67-0.9-1.61-1.59-2.8-2.08c-1.19-0.49-2.58-0.82-4.15-1.02c-1.58-0.2-3.27-0.29-5.08-0.29
			c-2.96,0-6.1-0.02-9.42-0.05s-6.36-0.45-9.13-1.26c-2.77-0.81-5.06-2.14-6.86-4.01c-1.81-1.87-2.71-4.64-2.71-8.31
			c0-2.32,0.64-4.43,1.93-6.33c1.29-1.9,3.05-3.53,5.27-4.88c2.22-1.35,4.85-2.41,7.88-3.19c3.03-0.77,6.31-1.16,9.86-1.16
			c2.77,0,5.17,0.19,7.2,0.58c2.03,0.39,3.78,0.81,5.27,1.26c1.48,0.45,2.71,0.87,3.67,1.26c0.97,0.39,1.77,0.58,2.41,0.58
			c0.71,0,1.22-0.13,1.55-0.38c0.32-0.26,0.64-0.55,0.97-0.87l1.16,0.49l-5.32,11.11l-1.06-0.68c0.06-0.19,0.09-0.61,0.09-1.26
			c0-0.45-0.39-1-1.16-1.64c-0.77-0.64-1.87-1.27-3.29-1.88c-1.42-0.61-3.11-1.13-5.08-1.55c-1.96-0.42-4.11-0.63-6.42-0.63
			c-5.22,0-9.36,0.84-12.42,2.52c-3.06,1.68-4.59,3.86-4.59,6.57c0,1.22,0.34,2.21,1.02,2.95c0.68,0.74,1.61,1.32,2.8,1.74
			c1.19,0.42,2.58,0.69,4.15,0.82c1.58,0.13,3.27,0.19,5.08,0.19c3.03,0,6.18,0.05,9.47,0.15c3.29,0.09,6.31,0.6,9.08,1.5
			c2.77,0.91,5.06,2.35,6.86,4.35c1.81,2,2.71,4.93,2.71,8.79c0,2.06-0.53,4.04-1.59,5.94c-1.06,1.9-2.66,3.59-4.78,5.08
			c-2.13,1.48-4.75,2.64-7.88,3.48c-3.13,0.84-6.75,1.26-10.87,1.26c-3.48,0-6.49-0.27-9.04-0.82c-2.54-0.55-4.72-1.19-6.52-1.93
			c-1.8-0.74-3.29-1.42-4.44-2.03c-1.16-0.61-2.1-0.92-2.8-0.92c-0.64,0-1.32,0.39-2.03,1.16l-0.97-0.58l5.22-11.11L774.97,849.67z"
			/>
	</g>
	<path class="st3" d="M614.53,445.46c-1.28-1.47-3.92-6.45-7.91-14.94l-54.11-115.08c-1.35-2.88-2.03-4.72-2.03-5.53
		c0-1.92,1.85-3.46,5.54-4.65v-3.54h-37.5v3.54c3.69,0.96,5.53,2.4,5.53,4.32c0,1.03-0.68,2.98-2.04,5.86l-51.45,119.4
		c-2.63,5.68-4.76,9.37-6.38,11.07c-1.62,1.7-3.97,2.81-7.06,3.32v3.54h34.4v-3.54c-4.46-0.73-6.69-2.21-6.69-4.43
		c0-1.1,0.64-3.02,1.92-5.75l49.77-117.69l25.99,55.88l0.17,0.36l8.56,18.4h-0.09l9.3,20.19l9.92,21.31
		c1.66,3.39,2.49,5.68,2.49,6.86c0,2.66-2.19,4.28-6.57,4.87v3.54h36.6v-3.54C618.6,448.19,615.8,446.93,614.53,445.46z"/>
</g>
</svg>
