<svg width="24" height="26" viewBox="0 0 24 26" fill="none" xmlns="http://www.w3.org/2000/svg">
<path d="M2.31792 23H1.32928L2.83567 18.6364H4.02459L5.52885 23H4.54022L3.44718 19.6335H3.41309L2.31792 23ZM2.25613 21.2848H4.59135V22.005H2.25613V21.2848ZM8.678 19.7273L7.53382 23H6.5111L5.36692 19.7273H6.32573L7.00542 22.0689H7.03951L7.71706 19.7273H8.678ZM9.98784 23.0618C9.77903 23.0618 9.59295 23.0256 9.4296 22.9531C9.26625 22.8793 9.13699 22.7706 9.04181 22.6271C8.94806 22.4822 8.90119 22.3018 8.90119 22.0859C8.90119 21.9041 8.93457 21.7514 9.00133 21.6278C9.06809 21.5043 9.159 21.4048 9.27406 21.3295C9.38912 21.2543 9.5198 21.1974 9.6661 21.1591C9.81383 21.1207 9.96866 21.0938 10.1306 21.0781C10.3209 21.0582 10.4743 21.0398 10.5908 21.0227C10.7073 21.0043 10.7918 20.9773 10.8444 20.9418C10.8969 20.9062 10.9232 20.8537 10.9232 20.7841V20.7713C10.9232 20.6364 10.8806 20.532 10.7954 20.4581C10.7116 20.3842 10.5922 20.3473 10.4374 20.3473C10.2741 20.3473 10.1441 20.3835 10.0475 20.456C9.95091 20.527 9.88699 20.6165 9.85574 20.7244L9.01625 20.6562C9.05886 20.4574 9.14267 20.2855 9.26767 20.1406C9.39267 19.9943 9.55389 19.8821 9.75133 19.804C9.9502 19.7244 10.1803 19.6847 10.4417 19.6847C10.6235 19.6847 10.7975 19.706 10.9637 19.7486C11.1313 19.7912 11.2797 19.8572 11.409 19.9467C11.5397 20.0362 11.6427 20.1513 11.718 20.2919C11.7932 20.4311 11.8309 20.598 11.8309 20.7926V23H10.9701V22.5462H10.9445C10.892 22.6484 10.8216 22.7386 10.7336 22.8168C10.6455 22.8935 10.5397 22.9538 10.4161 22.9979C10.2925 23.0405 10.1498 23.0618 9.98784 23.0618ZM10.2478 22.4354C10.3813 22.4354 10.4992 22.4091 10.6015 22.3565C10.7037 22.3026 10.784 22.2301 10.8422 22.1392C10.9005 22.0483 10.9296 21.9453 10.9296 21.8303V21.483C10.9012 21.5014 10.8621 21.5185 10.8124 21.5341C10.7641 21.5483 10.7094 21.5618 10.6483 21.5746C10.5873 21.5859 10.5262 21.5966 10.4651 21.6065C10.404 21.6151 10.3486 21.6229 10.2989 21.63C10.1924 21.6456 10.0993 21.6705 10.0198 21.7045C9.94025 21.7386 9.87846 21.7848 9.83443 21.843C9.79039 21.8999 9.76838 21.9709 9.76838 22.0561C9.76838 22.1797 9.81312 22.2741 9.90261 22.3395C9.99352 22.4034 10.1086 22.4354 10.2478 22.4354ZM13.4427 21.108V23H12.5351V19.7273H13.4001V20.3047H13.4385C13.5109 20.1143 13.6324 19.9638 13.8028 19.853C13.9733 19.7408 14.18 19.6847 14.4229 19.6847C14.6501 19.6847 14.8483 19.7344 15.0173 19.8338C15.1863 19.9332 15.3177 20.0753 15.4115 20.2599C15.5052 20.4432 15.5521 20.6619 15.5521 20.9162V23H14.6444V21.0781C14.6459 20.8778 14.5947 20.7216 14.491 20.6094C14.3873 20.4957 14.2446 20.4389 14.0628 20.4389C13.9406 20.4389 13.8327 20.4652 13.7389 20.5178C13.6466 20.5703 13.5741 20.647 13.5216 20.7479C13.4704 20.8473 13.4442 20.9673 13.4427 21.108ZM16.2504 23V22.4588L17.8527 20.4751V20.4517H16.3058V19.7273H18.9458V20.3175L17.4415 22.2521V22.2756H19.0012V23H16.2504ZM20.6285 23.0618C20.4197 23.0618 20.2336 23.0256 20.0702 22.9531C19.9069 22.8793 19.7776 22.7706 19.6824 22.6271C19.5887 22.4822 19.5418 22.3018 19.5418 22.0859C19.5418 21.9041 19.5752 21.7514 19.642 21.6278C19.7087 21.5043 19.7996 21.4048 19.9147 21.3295C20.0297 21.2543 20.1604 21.1974 20.3067 21.1591C20.4545 21.1207 20.6093 21.0938 20.7712 21.0781C20.9616 21.0582 21.115 21.0398 21.2314 21.0227C21.3479 21.0043 21.4324 20.9773 21.485 20.9418C21.5376 20.9062 21.5638 20.8537 21.5638 20.7841V20.7713C21.5638 20.6364 21.5212 20.532 21.436 20.4581C21.3522 20.3842 21.2329 20.3473 21.078 20.3473C20.9147 20.3473 20.7847 20.3835 20.6881 20.456C20.5915 20.527 20.5276 20.6165 20.4964 20.7244L19.6569 20.6562C19.6995 20.4574 19.7833 20.2855 19.9083 20.1406C20.0333 19.9943 20.1945 19.8821 20.392 19.804C20.5908 19.7244 20.8209 19.6847 21.0823 19.6847C21.2641 19.6847 21.4381 19.706 21.6043 19.7486C21.7719 19.7912 21.9204 19.8572 22.0496 19.9467C22.1803 20.0362 22.2833 20.1513 22.3586 20.2919C22.4339 20.4311 22.4715 20.598 22.4715 20.7926V23H21.6107V22.5462H21.5851C21.5326 22.6484 21.4623 22.7386 21.3742 22.8168C21.2861 22.8935 21.1803 22.9538 21.0567 22.9979C20.9331 23.0405 20.7904 23.0618 20.6285 23.0618ZM20.8884 22.4354C21.0219 22.4354 21.1398 22.4091 21.2421 22.3565C21.3444 22.3026 21.4246 22.2301 21.4829 22.1392C21.5411 22.0483 21.5702 21.9453 21.5702 21.8303V21.483C21.5418 21.5014 21.5028 21.5185 21.453 21.5341C21.4047 21.5483 21.3501 21.5618 21.289 21.5746C21.2279 21.5859 21.1668 21.5966 21.1057 21.6065C21.0447 21.6151 20.9893 21.6229 20.9395 21.63C20.833 21.6456 20.74 21.6705 20.6604 21.7045C20.5809 21.7386 20.5191 21.7848 20.4751 21.843C20.431 21.8999 20.409 21.9709 20.409 22.0561C20.409 22.1797 20.4537 22.2741 20.5432 22.3395C20.6341 22.4034 20.7492 22.4354 20.8884 22.4354Z" fill="#D2D2D2"/>
<g clip-path="url(#clip0_9_156)">
<path d="M9.01039 13.4917C8.97996 12.994 9.25105 12.6242 9.58577 12.2827C10.9329 10.9089 12.2792 9.53426 13.6254 8.15864C14.2285 7.54329 14.2266 7.42379 13.6088 6.79338C12.2404 5.39707 10.8684 4.00358 9.50555 2.60162C8.9025 1.98156 8.83704 1.10934 9.32758 0.529741C9.85409 -0.0922019 10.8121 -0.198525 11.3894 0.378253C12.991 1.97874 14.6001 3.57641 16.1316 5.24653C17.2833 6.50264 17.2907 8.43151 16.1556 9.71209C14.9615 11.0585 13.6641 12.3099 12.411 13.6018C12.0975 13.9245 11.7932 14.2586 11.4622 14.5615C10.9883 14.9962 10.4359 15.1364 9.84303 14.8513C9.29992 14.5907 8.98826 14.1513 9.01039 13.4917Z" fill="#D2D2D2"/>
</g>
<defs>
<clipPath id="clip0_9_156">
<rect width="8" height="15" fill="white" transform="translate(17 15) rotate(-180)"/>
</clipPath>
</defs>
</svg>
