<svg width="24" height="26" viewBox="0 0 24 26" fill="none" xmlns="http://www.w3.org/2000/svg">
<path d="M5.21831 23H4.22967L5.73606 18.6364H6.92498L8.42924 23H7.44061L6.34757 19.6335H6.31348L5.21831 23ZM5.15652 21.2848H7.49174V22.005H5.15652V21.2848ZM10.4731 19.7273V20.4091H8.50222V19.7273H10.4731ZM8.94966 18.9432H9.85733V21.9943C9.85733 22.0781 9.87012 22.1435 9.89569 22.1903C9.92125 22.2358 9.95676 22.2678 10.0022 22.2862C10.0491 22.3047 10.1031 22.3139 10.1642 22.3139C10.2068 22.3139 10.2494 22.3104 10.292 22.3033C10.3346 22.2947 10.3673 22.2884 10.39 22.2841L10.5328 22.9595C10.4873 22.9737 10.4234 22.9901 10.341 23.0085C10.2586 23.0284 10.1585 23.0405 10.0406 23.0447C9.82182 23.0533 9.63006 23.0241 9.46529 22.9574C9.30194 22.8906 9.1748 22.7869 9.0839 22.6463C8.99299 22.5057 8.94824 22.3281 8.94966 22.1136V18.9432ZM11.0644 23V19.7273H11.9443V20.2983H11.9784C12.0381 20.0952 12.1382 19.9418 12.2789 19.8381C12.4195 19.733 12.5814 19.6804 12.7646 19.6804C12.8101 19.6804 12.8591 19.6832 12.9117 19.6889C12.9642 19.6946 13.0104 19.7024 13.0502 19.7124V20.5178C13.0075 20.505 12.9486 20.4936 12.8733 20.4837C12.798 20.4737 12.7291 20.4688 12.6666 20.4688C12.5331 20.4688 12.4138 20.4979 12.3087 20.5561C12.205 20.6129 12.1226 20.6925 12.0615 20.7947C12.0019 20.897 11.972 21.0149 11.972 21.1484V23H11.0644ZM14.3589 23.0618C14.1501 23.0618 13.964 23.0256 13.8007 22.9531C13.6373 22.8793 13.5081 22.7706 13.4129 22.6271C13.3192 22.4822 13.2723 22.3018 13.2723 22.0859C13.2723 21.9041 13.3057 21.7514 13.3724 21.6278C13.4392 21.5043 13.5301 21.4048 13.6452 21.3295C13.7602 21.2543 13.8909 21.1974 14.0372 21.1591C14.1849 21.1207 14.3398 21.0938 14.5017 21.0781C14.692 21.0582 14.8454 21.0398 14.9619 21.0227C15.0784 21.0043 15.1629 20.9773 15.2155 20.9418C15.268 20.9062 15.2943 20.8537 15.2943 20.7841V20.7713C15.2943 20.6364 15.2517 20.532 15.1665 20.4581C15.0827 20.3842 14.9633 20.3473 14.8085 20.3473C14.6452 20.3473 14.5152 20.3835 14.4186 20.456C14.322 20.527 14.2581 20.6165 14.2268 20.7244L13.3873 20.6562C13.43 20.4574 13.5138 20.2855 13.6388 20.1406C13.7638 19.9943 13.925 19.8821 14.1224 19.804C14.3213 19.7244 14.5514 19.6847 14.8128 19.6847C14.9946 19.6847 15.1686 19.706 15.3348 19.7486C15.5024 19.7912 15.6508 19.8572 15.7801 19.9467C15.9108 20.0362 16.0138 20.1513 16.089 20.2919C16.1643 20.4311 16.202 20.598 16.202 20.7926V23H15.3412V22.5462H15.3156C15.2631 22.6484 15.1927 22.7386 15.1047 22.8168C15.0166 22.8935 14.9108 22.9538 14.7872 22.9979C14.6636 23.0405 14.5209 23.0618 14.3589 23.0618ZM14.6189 22.4354C14.7524 22.4354 14.8703 22.4091 14.9726 22.3565C15.0748 22.3026 15.1551 22.2301 15.2133 22.1392C15.2716 22.0483 15.3007 21.9453 15.3007 21.8303V21.483C15.2723 21.5014 15.2332 21.5185 15.1835 21.5341C15.1352 21.5483 15.0805 21.5618 15.0194 21.5746C14.9584 21.5859 14.8973 21.5966 14.8362 21.6065C14.7751 21.6151 14.7197 21.6229 14.67 21.63C14.5635 21.6456 14.4704 21.6705 14.3909 21.7045C14.3113 21.7386 14.2496 21.7848 14.2055 21.843C14.1615 21.8999 14.1395 21.9709 14.1395 22.0561C14.1395 22.1797 14.1842 22.2741 14.2737 22.3395C14.3646 22.4034 14.4797 22.4354 14.6189 22.4354ZM14.5209 19.3054L14.9726 18.3359H15.8121L15.1622 19.3054H14.5209ZM19.6292 20.6605L18.7982 20.7116C18.784 20.6406 18.7535 20.5767 18.7066 20.5199C18.6597 20.4616 18.5979 20.4155 18.5212 20.3814C18.4459 20.3459 18.3557 20.3281 18.2506 20.3281C18.11 20.3281 17.9914 20.358 17.8948 20.4176C17.7982 20.4759 17.7499 20.554 17.7499 20.652C17.7499 20.7301 17.7812 20.7962 17.8437 20.8501C17.9062 20.9041 18.0134 20.9474 18.1654 20.9801L18.7577 21.0994C19.0759 21.1648 19.3131 21.2699 19.4694 21.4148C19.6256 21.5597 19.7037 21.75 19.7037 21.9858C19.7037 22.2003 19.6405 22.3885 19.5141 22.5504C19.3891 22.7124 19.2172 22.8388 18.9985 22.9297C18.7812 23.0192 18.5305 23.0639 18.2464 23.0639C17.8131 23.0639 17.468 22.9737 17.2108 22.7933C16.9552 22.6115 16.8053 22.3643 16.7613 22.0518L17.654 22.005C17.681 22.1371 17.7464 22.2379 17.8501 22.3075C17.9537 22.3757 18.0866 22.4098 18.2485 22.4098C18.4076 22.4098 18.5354 22.3793 18.632 22.3182C18.73 22.2557 18.7797 22.1754 18.7812 22.0774C18.7797 21.995 18.7449 21.9276 18.6768 21.875C18.6086 21.821 18.5035 21.7798 18.3614 21.7514L17.7947 21.6385C17.4751 21.5746 17.2371 21.4638 17.0809 21.3061C16.926 21.1484 16.8486 20.9474 16.8486 20.7031C16.8486 20.4929 16.9055 20.3118 17.0191 20.1598C17.1341 20.0078 17.2954 19.8906 17.5028 19.8082C17.7116 19.7259 17.9559 19.6847 18.2357 19.6847C18.6491 19.6847 18.9743 19.772 19.2116 19.9467C19.4502 20.1214 19.5894 20.3594 19.6292 20.6605Z" fill="#D2D2D2"/>
<g clip-path="url(#clip0_9_157)">
<path d="M15.9896 1.50827C16.02 2.00601 15.749 2.37579 15.4142 2.71734C14.0671 4.09107 12.7208 5.46574 11.3746 6.84135C10.7715 7.45671 10.7734 7.57621 11.3912 8.20662C12.7596 9.60293 14.1316 10.9964 15.4945 12.3984C16.0975 13.0184 16.163 13.8907 15.6724 14.4703C15.1459 15.0922 14.1879 15.1985 13.6106 14.6217C12.009 13.0213 10.3999 11.4236 8.86836 9.75347C7.71668 8.49736 7.7093 6.56849 8.84439 5.28791C10.0385 3.94147 11.3359 2.69006 12.589 1.39819C12.9025 1.07545 13.2068 0.74143 13.5378 0.438457C14.0117 0.00375578 14.5641 -0.13644 15.157 0.148656C15.7001 0.409288 16.0117 0.848694 15.9896 1.50827Z" fill="#D2D2D2"/>
</g>
<defs>
<clipPath id="clip0_9_157">
<rect width="8" height="15" fill="white" transform="translate(8)"/>
</clipPath>
</defs>
</svg>
