<svg width="8" height="15" viewBox="0 0 8 15" fill="none" xmlns="http://www.w3.org/2000/svg">
<path d="M0.00899805 13.4924C-0.0214308 12.9947 0.249662 12.6249 0.584378 12.2834C1.93154 10.9096 3.27779 9.53496 4.62403 8.15935C5.22707 7.54399 5.22523 7.4245 4.60743 6.79409C3.23906 5.39777 1.867 4.00428 0.504158 2.60233C-0.0988844 1.98227 -0.164352 1.11004 0.326196 0.530443C0.852706 -0.0915 1.81075 -0.197823 2.38798 0.378955C3.98964 1.97945 5.59867 3.57711 7.13025 5.24723C8.28193 6.50334 8.28931 8.43221 7.15423 9.71279C5.96013 11.0592 4.66276 12.3106 3.40964 13.6025C3.09613 13.9252 2.79185 14.2593 2.46082 14.5622C1.98687 14.9969 1.43454 15.1371 0.84164 14.852C0.298532 14.5914 -0.013132 14.152 0.00899805 13.4924Z" fill="#DC994B"/>
</svg>
