<svg width="28" height="28" viewBox="0 0 28 28" fill="none" xmlns="http://www.w3.org/2000/svg">
<path d="M2.27265 13.8895C2.27265 16.4845 2.27483 19.0783 2.27265 21.6733C2.27156 23.2523 2.84326 24.5231 4.31986 25.2178C4.80989 25.4487 5.39901 25.5619 5.94457 25.5663C9.59144 25.5957 13.2383 25.5761 16.8852 25.5913C17.3153 25.5935 17.4503 25.4694 17.4416 25.0338C17.4144 23.7641 17.4297 22.4933 17.4329 21.2236C17.4373 18.9172 18.8932 17.4504 21.2039 17.434C22.4562 17.4253 23.7085 17.4057 24.9597 17.4449C25.4835 17.4613 25.5989 17.2751 25.5913 16.7916C25.5662 15.1767 25.5771 13.5618 25.5858 11.9469C25.5869 11.679 25.5978 11.3937 25.6893 11.1476C25.8766 10.639 26.384 10.3897 26.922 10.4811C27.4545 10.5715 27.8465 11.0419 27.8476 11.6583C27.8552 14.1258 27.8498 16.5934 27.8454 19.0609C27.8454 19.2232 27.8084 19.3854 27.7953 19.5477C27.6864 20.9067 27.1191 22.0642 26.1804 23.0247C25.0653 24.1659 23.9263 25.2853 22.7644 26.3775C21.6831 27.3935 20.3404 27.8335 18.8856 27.8422C14.5309 27.8683 10.1762 27.8672 5.82152 27.8465C2.61676 27.8335 0.0424942 25.2548 0.0250711 22.0054C-0.00541928 16.6348 -0.0119529 11.2641 0.027249 5.89342C0.0501168 2.71697 2.33908 0.0730117 5.89774 0.0240092C9.2898 -0.0217264 12.684 0.0109419 16.0772 0.0163866C16.8917 0.0174755 17.3894 0.451964 17.4057 1.14018C17.4209 1.8371 16.9592 2.2705 16.1055 2.27377C12.7853 2.28792 9.46512 2.27703 6.14385 2.28683C4.24146 2.29228 2.92384 3.18195 2.45886 4.81863C2.3173 5.31519 2.28463 5.85639 2.28027 6.37691C2.26285 8.88039 2.27265 11.385 2.27265 13.8884V13.8895ZM19.7164 25.453C21.3597 24.9837 25.0958 21.2301 25.4105 19.8025C25.3136 19.7742 25.2145 19.7197 25.1154 19.7197C23.7553 19.7165 22.3952 19.7012 21.0362 19.7295C20.1586 19.748 19.7273 20.2206 19.7186 21.1136C19.7077 22.3463 19.7154 23.579 19.7154 24.8116C19.7154 25.0022 19.7154 25.1939 19.7154 25.453H19.7164Z" fill="#293641"/>
<path d="M5.84548 19.6326C5.72896 17.8435 6.46727 16.2754 7.83389 14.9197C12.3813 10.4136 16.8983 5.87601 21.4337 1.35798C22.9528 -0.155651 24.7996 -0.34295 26.3895 0.82222C27.9456 1.96234 28.2745 4.17072 27.1136 5.75296C26.9318 6.00015 26.726 6.23318 26.5082 6.45097C21.9923 10.9646 17.4449 15.4467 12.9704 20.0007C11.2728 21.7288 9.25061 22.1927 6.97145 22.024C6.24621 21.9706 5.89884 21.5916 5.84875 20.8697C5.8237 20.5092 5.84439 20.1444 5.84439 19.6315L5.84548 19.6326ZM8.13008 19.1611C8.10504 19.7807 8.13008 19.7916 8.76385 19.7426C9.75697 19.6664 10.5443 19.2047 11.2347 18.5143C15.7843 13.9625 20.3415 9.41834 24.89 4.86656C25.0915 4.6651 25.2777 4.4288 25.4051 4.17508C25.7437 3.50211 25.4443 2.76272 24.7506 2.46979C24.1071 2.19756 23.5713 2.42079 23.1205 2.87052C18.4903 7.49636 13.8656 12.1276 9.2419 16.7589C8.58091 17.421 8.14642 18.1963 8.13008 19.1611Z" fill="#293641"/>
</svg>
