<svg width="24" height="28" viewBox="0 0 24 28" fill="none" xmlns="http://www.w3.org/2000/svg">
<path d="M20.3477 5.97443C20.346 6.81283 19.6051 7.30998 18.9089 7.02098C18.7737 6.965 18.6485 6.8829 18.522 6.80702C16.4617 5.57181 14.3984 4.34116 12.3455 3.0935C12.0532 2.91562 11.8359 2.92018 11.5449 3.09724C9.45757 4.36604 7.36032 5.61866 5.26307 6.87088C5.09348 6.97205 4.90647 7.07074 4.71533 7.10515C4.21112 7.19637 3.75999 6.93225 3.57838 6.47821C3.39096 6.01009 3.54355 5.48266 3.99427 5.21024C6.4763 3.71215 8.96415 2.224 11.4503 0.732542C11.7804 0.534758 12.1146 0.535588 12.4417 0.731713C14.9167 2.21488 17.3917 3.69847 19.8634 5.18744C20.1835 5.38025 20.3568 5.67506 20.3477 5.97443Z" fill="#DC994B"/>
<path d="M17.4958 3.01019C16.5703 2.45664 15.6859 1.97939 14.8736 1.40097C14.7053 1.28114 14.731 0.766981 14.8068 0.470099C14.8537 0.285584 15.1502 0.0654097 15.3567 0.039702C15.8588 -0.0224941 16.3746 0.000725768 16.8834 0.0264335C17.2512 0.0446777 17.4863 0.316267 17.4925 0.701054C17.5041 1.43828 17.4958 2.17593 17.4958 3.0106V3.01019Z" fill="#DC994B"/>
<path d="M18.5104 7.92329C18.5113 7.64838 18.4275 7.48999 18.1878 7.34777C16.2021 6.17061 14.2214 4.98515 12.2485 3.78642C12.0151 3.64462 11.8592 3.65913 11.6365 3.79389C9.66158 4.9893 7.68084 6.17517 5.69637 7.3544C5.47537 7.48543 5.38581 7.62558 5.38705 7.89178C5.39825 10.5127 5.39452 13.1341 5.39369 15.755C5.39369 16.8003 5.70674 17.1105 6.76905 17.1105C8.48939 17.1105 10.2102 17.1105 11.9305 17.1105C13.7047 17.1105 15.479 17.1113 17.2532 17.1105C18.1418 17.1101 18.503 16.7539 18.5038 15.867C18.5063 13.2191 18.5009 10.5708 18.5104 7.92288V7.92329ZM14.2338 15.8388H9.66365V10.385C9.66365 9.95752 10.0103 9.61088 10.4378 9.61088H13.4601C13.8876 9.61088 14.2342 9.95752 14.2342 10.385V15.8388H14.2338Z" fill="#DC994B"/>
<path d="M3.77184 25V20.6364H4.69442V22.4368H6.56729V20.6364H7.48775V25H6.56729V23.1974H4.69442V25H3.77184ZM9.71005 25.0639C9.37908 25.0639 9.09286 24.9936 8.85138 24.853C8.61133 24.7109 8.42596 24.5135 8.29528 24.2607C8.1646 24.0064 8.09925 23.7116 8.09925 23.3764C8.09925 23.0384 8.1646 22.7429 8.29528 22.4901C8.42596 22.2358 8.61133 22.0384 8.85138 21.8977C9.09286 21.7557 9.37908 21.6847 9.71005 21.6847C10.041 21.6847 10.3265 21.7557 10.5666 21.8977C10.8081 22.0384 10.9941 22.2358 11.1248 22.4901C11.2555 22.7429 11.3208 23.0384 11.3208 23.3764C11.3208 23.7116 11.2555 24.0064 11.1248 24.2607C10.9941 24.5135 10.8081 24.7109 10.5666 24.853C10.3265 24.9936 10.041 25.0639 9.71005 25.0639ZM9.71431 24.3608C9.86488 24.3608 9.99059 24.3182 10.0914 24.233C10.1923 24.1463 10.2683 24.0284 10.3194 23.8793C10.372 23.7301 10.3983 23.5604 10.3983 23.37C10.3983 23.1797 10.372 23.0099 10.3194 22.8608C10.2683 22.7116 10.1923 22.5937 10.0914 22.5071C9.99059 22.4205 9.86488 22.3771 9.71431 22.3771C9.56232 22.3771 9.43448 22.4205 9.33079 22.5071C9.22852 22.5937 9.1511 22.7116 9.09854 22.8608C9.04741 23.0099 9.02184 23.1797 9.02184 23.37C9.02184 23.5604 9.04741 23.7301 9.09854 23.8793C9.1511 24.0284 9.22852 24.1463 9.33079 24.233C9.43448 24.3182 9.56232 24.3608 9.71431 24.3608ZM11.911 25V21.7273H12.7761V22.3047H12.8145C12.8826 22.1129 12.9963 21.9616 13.1554 21.8509C13.3145 21.7401 13.5048 21.6847 13.7264 21.6847C13.9508 21.6847 14.1419 21.7408 14.2995 21.853C14.4572 21.9638 14.5623 22.1143 14.6149 22.3047H14.649C14.7157 22.1172 14.8365 21.9673 15.0112 21.8551C15.1873 21.7415 15.3954 21.6847 15.6355 21.6847C15.9409 21.6847 16.1887 21.782 16.3791 21.9766C16.5708 22.1697 16.6667 22.4439 16.6667 22.799V25H15.7612V22.978C15.7612 22.7962 15.7129 22.6598 15.6163 22.5689C15.5197 22.478 15.399 22.4325 15.2541 22.4325C15.0893 22.4325 14.9608 22.4851 14.8684 22.5902C14.7761 22.6939 14.7299 22.831 14.7299 23.0014V25H13.85V22.9588C13.85 22.7983 13.8038 22.6705 13.7115 22.5753C13.6206 22.4801 13.5005 22.4325 13.3514 22.4325C13.2505 22.4325 13.1596 22.4581 13.0787 22.5092C12.9991 22.5589 12.9359 22.6293 12.889 22.7202C12.8422 22.8097 12.8187 22.9148 12.8187 23.0355V25H11.911ZM18.8752 25.0639C18.5385 25.0639 18.2488 24.9957 18.0059 24.8594C17.7644 24.7216 17.5783 24.527 17.4476 24.2756C17.3169 24.0227 17.2516 23.7237 17.2516 23.3786C17.2516 23.0419 17.3169 22.7464 17.4476 22.4922C17.5783 22.2379 17.7623 22.0398 17.9995 21.8977C18.2381 21.7557 18.5179 21.6847 18.839 21.6847C19.0549 21.6847 19.2559 21.7195 19.4419 21.7891C19.6294 21.8572 19.7928 21.9602 19.932 22.098C20.0726 22.2358 20.182 22.4091 20.2601 22.6179C20.3382 22.8253 20.3773 23.0682 20.3773 23.3466V23.5959H17.6138V23.0334H19.5229C19.5229 22.9027 19.4945 22.7869 19.4377 22.6861C19.3809 22.5852 19.302 22.5064 19.2012 22.4496C19.1017 22.3913 18.986 22.3622 18.8539 22.3622C18.7161 22.3622 18.5939 22.3942 18.4874 22.4581C18.3823 22.5206 18.2999 22.6051 18.2402 22.7116C18.1806 22.8168 18.15 22.9339 18.1486 23.0632V23.598C18.1486 23.7599 18.1784 23.8999 18.2381 24.0178C18.2992 24.1357 18.3851 24.2266 18.4959 24.2905C18.6067 24.3544 18.7381 24.3864 18.8901 24.3864C18.9909 24.3864 19.0833 24.3722 19.1671 24.3438C19.2509 24.3153 19.3226 24.2727 19.3823 24.2159C19.4419 24.1591 19.4874 24.0895 19.5186 24.0071L20.3581 24.0625C20.3155 24.2642 20.2282 24.4403 20.0961 24.5909C19.9654 24.7401 19.7963 24.8565 19.589 24.9403C19.383 25.0227 19.1451 25.0639 18.8752 25.0639Z" fill="#DC994B"/>
</svg>
