<svg width="32" height="33" viewBox="0 0 32 33" fill="none" xmlns="http://www.w3.org/2000/svg">
<path d="M4.4047 4.05431C4.46718 3.93435 4.48467 3.9156 4.48342 3.89811C4.39096 1.94755 5.01824 2.2337 6.30653 2.2337C6.9713 2.2337 7.63732 2.2337 8.30458 2.2337C8.8269 0.891667 9.73283 0.0469639 11.1898 0.00197971C12.4956 -0.0392558 13.4828 0.564282 14.0338 1.75636C14.215 2.14873 14.4249 2.26119 14.8285 2.24369C15.5358 2.21245 16.2443 2.23245 16.9528 2.23619C17.8187 2.23994 18.0662 2.48236 18.0861 3.34206C18.0911 3.54698 18.0861 3.75191 18.0861 4.0568C18.7109 4.0568 19.2845 4.05181 19.8593 4.0568C21.6024 4.07305 22.5696 5.02771 22.5846 6.76085C22.5958 8.03166 22.5871 9.30246 22.5858 10.5733C22.5858 10.6982 22.5933 10.8257 22.5746 10.9481C22.4958 11.4405 22.2359 11.7716 21.7049 11.7354C21.2138 11.7016 20.9651 11.3805 20.9626 10.8969C20.9539 9.58486 20.9589 8.27157 20.9551 6.95953C20.9526 5.88866 20.7552 5.69373 19.6706 5.69123C19.1745 5.68998 18.6784 5.69123 18.0849 5.69123C18.0849 6.02611 18.0999 6.30976 18.0824 6.59091C18.0412 7.21944 17.7613 7.49934 17.1352 7.50059C13.2403 7.50684 9.34546 7.50684 5.45058 7.50059C4.78707 7.50059 4.51966 7.21195 4.50342 6.54218C4.49717 6.29477 4.50342 6.04611 4.50342 5.72622C3.73369 5.72622 2.9902 5.67124 2.26295 5.75746C2.03054 5.78495 1.80811 6.16481 1.64942 6.42597C1.5657 6.56342 1.62818 6.79209 1.62818 6.97953C1.62818 14.3544 1.62818 21.7306 1.62818 29.1055C1.62818 30.1664 1.8381 30.3751 2.90148 30.3751C6.65016 30.3751 10.4001 30.3751 14.1488 30.3751C14.3362 30.3751 14.5874 30.3088 14.6973 30.4025C14.9585 30.6237 15.3246 30.9249 15.3234 31.1923C15.3234 31.4584 14.946 31.7483 14.6886 31.9745C14.5924 32.0595 14.3674 31.9995 14.2 31.9995C10.3464 31.9995 6.49397 32.002 2.64032 31.9995C0.999649 31.9982 0.00124956 30.9986 0 29.3542C0 21.8118 0 14.2707 0 6.72837C0 5.06145 0.954664 4.08554 2.61658 4.0568C3.21762 4.04681 3.81866 4.05555 4.40345 4.05555L4.4047 4.05431ZM16.4342 3.86187C15.6308 3.86187 14.886 3.86187 14.1413 3.86187C13.3524 3.86187 12.8588 3.49075 12.6606 2.74851C12.4806 2.075 11.9083 1.62016 11.2598 1.63516C10.5825 1.6514 10.0002 2.16497 9.88028 2.85598C9.73283 3.70318 9.55039 3.85937 8.69319 3.86187C7.84849 3.86437 7.00504 3.86187 6.17408 3.86187V5.81744H16.4342V3.86187Z" fill="#293641"/>
<path d="M13.3528 22.6678C13.3528 17.4946 17.4951 13.351 22.6708 13.3473C27.8327 13.3448 32 17.5083 32 22.6678C32 27.8185 27.8202 31.9995 22.6708 31.9995C17.5163 31.9995 13.3528 27.8322 13.3528 22.6678ZM14.9835 22.6553C14.9797 26.92 18.4123 30.3713 22.6595 30.3738C26.8993 30.3776 30.3731 26.9125 30.3756 22.679C30.3781 18.4205 26.948 14.9867 22.6845 14.9767C18.4123 14.968 14.9872 18.383 14.9835 22.654V22.6553Z" fill="#293641"/>
<path d="M14.9947 9.98468C16.0131 9.98468 17.0315 9.98093 18.0499 9.98593C18.6997 9.98968 19.0221 10.2521 19.0333 10.7669C19.0446 11.2842 18.7109 11.6054 18.0949 11.6079C15.9956 11.6179 13.8976 11.6179 11.7984 11.6079C11.1773 11.6054 10.8424 11.2917 10.8462 10.7794C10.8499 10.2646 11.1761 9.98968 11.8159 9.98593C12.8755 9.97968 13.9351 9.98468 14.996 9.98468H14.9947Z" fill="#293641"/>
<path d="M5.48431 26.0191C6.29527 25.1919 6.97753 24.4334 7.73477 23.7586C7.96219 23.5562 8.42203 23.4775 8.72692 23.5487C8.92435 23.5949 9.11553 24.0048 9.15552 24.2734C9.18426 24.4696 9.00432 24.7445 8.84313 24.912C7.97593 25.8104 7.09374 26.6938 6.20156 27.566C5.72547 28.0321 5.32311 28.0234 4.84578 27.5635C4.3672 27.1012 3.89237 26.6326 3.43503 26.1503C3.04017 25.7329 3.02142 25.2543 3.39504 24.9432C3.7874 24.6158 4.20476 24.6408 4.56713 25.0057C4.85953 25.2993 5.12568 25.6205 5.48431 26.0191Z" fill="#293641"/>
<path d="M5.40434 19.3402C6.26028 18.4842 6.94504 17.792 7.6398 17.1085C8.10464 16.6499 8.59696 16.5937 8.94934 16.9435C9.30921 17.3009 9.25923 17.787 8.79564 18.2556C7.94719 19.1128 7.09624 19.9675 6.23654 20.8147C5.73547 21.3083 5.32686 21.317 4.83454 20.8459C4.38344 20.4148 3.9486 19.9662 3.51 19.5239C3.13763 19.1478 3.04641 18.7304 3.40379 18.3043C3.72867 17.9157 4.22475 17.9357 4.6596 18.3755C4.93325 18.6529 5.14193 18.9953 5.40558 19.3414L5.40434 19.3402Z" fill="#293641"/>
<path d="M5.46059 12.63C6.2778 11.7903 6.96506 11.0743 7.66481 10.3708C8.1334 9.90097 8.60448 9.85598 8.96311 10.2221C9.33423 10.6007 9.28674 11.0331 8.80066 11.5229C7.95346 12.3788 7.10251 13.231 6.24656 14.077C5.70425 14.6131 5.34313 14.6181 4.81081 14.1045C4.37722 13.6871 3.95237 13.2598 3.53376 12.8274C3.09142 12.3701 3.04768 11.9278 3.39256 11.5629C3.73119 11.2043 4.25476 11.2442 4.7021 11.6991C4.96201 11.964 5.17444 12.2739 5.46184 12.6288L5.46059 12.63Z" fill="#293641"/>
<path d="M13.1291 13.3511C13.6064 13.3511 14.085 13.3461 14.5624 13.3523C15.0297 13.3586 15.3121 13.6197 15.3583 14.0658C15.4096 14.5569 15.1172 14.913 14.6598 14.9368C13.6239 14.9905 12.5831 14.9892 11.5472 14.9405C11.0798 14.9193 10.8074 14.5706 10.8512 14.0733C10.8924 13.611 11.1723 13.3648 11.6334 13.3536C12.132 13.3411 12.6305 13.3511 13.1291 13.3511Z" fill="#293641"/>
<path d="M20.0654 25.1918C19.4769 25.1918 18.8971 25.2068 18.3186 25.1881C17.6375 25.1668 17.3739 24.8969 17.3676 24.2284C17.3576 23.1863 17.3576 22.1454 17.3676 21.1033C17.3739 20.4435 17.6575 20.1524 18.3161 20.1349C18.8958 20.1186 19.4756 20.1311 20.1367 20.1311C20.1367 19.5101 20.1279 18.9353 20.1392 18.3592C20.1529 17.657 20.4341 17.3671 21.1213 17.3608C22.1422 17.3521 23.1631 17.3533 24.1827 17.3608C24.9212 17.3658 25.1799 17.627 25.1974 18.388C25.2099 18.9453 25.1999 19.5026 25.1999 20.1311C25.8409 20.1311 26.4195 20.1211 26.9955 20.1336C27.6778 20.1486 27.9864 20.4535 27.9927 21.1333C28.0039 22.1542 28.0039 23.175 27.9927 24.1959C27.9852 24.8894 27.7028 25.1693 26.9967 25.1893C26.4357 25.2056 25.8746 25.1931 25.1986 25.1931C25.1986 25.7816 25.2061 26.3339 25.1974 26.885C25.1836 27.7372 24.9212 27.9896 24.059 27.9933C23.1219 27.9971 22.1847 27.9983 21.2475 27.9933C20.4191 27.9896 20.1429 27.7022 20.1342 26.855C20.1292 26.3764 20.1292 25.8966 20.1242 25.418C20.1242 25.3793 20.1042 25.3393 20.0642 25.1931L20.0654 25.1918ZM26.327 23.5599V21.758C25.7484 21.758 25.2111 21.7605 24.6738 21.758C23.7979 21.753 23.578 21.5344 23.5667 20.6422C23.5605 20.1061 23.5655 19.5688 23.5655 19.0215H21.7623C21.7623 19.6525 21.7723 20.2511 21.7598 20.8496C21.7461 21.4869 21.4824 21.7443 20.8364 21.7555C20.2404 21.7655 19.6431 21.758 19.0271 21.758V23.5624C19.6581 23.5624 20.2579 23.5449 20.8552 23.5674C21.4962 23.5924 21.7498 23.8636 21.7611 24.5033C21.7723 25.1019 21.7636 25.7004 21.7636 26.3302H23.5667C23.5667 25.7354 23.5555 25.1568 23.5692 24.5795C23.5879 23.8236 23.8341 23.5799 24.5988 23.5624C25.1586 23.5487 25.7184 23.5599 26.327 23.5599Z" fill="#293641"/>
</svg>
