<?xml version="1.0" encoding="UTF-8"?>
<svg id="Capa_2" data-name="Capa 2" xmlns="http://www.w3.org/2000/svg" viewBox="0 0 314.24 473.23">
  <defs>
    <style>
      .cls-1 {
        fill: #283641;
      }

      .cls-2 {
        fill: #293641;
      }

      .cls-3 {
        fill: #dc9949;
      }
    </style>
  </defs>
  <path class="cls-2" d="M3.23,390.11v-49.93H22.93c3.77,0,6.99,.67,9.65,2.02,2.68,1.33,4.72,3.23,6.12,5.68,1.41,2.44,2.12,5.31,2.12,8.61s-.72,6.17-2.15,8.56c-1.43,2.37-3.5,4.19-6.22,5.46-2.7,1.27-5.96,1.9-9.8,1.9H9.47v-8.48h11.48c2.02,0,3.69-.28,5.02-.83,1.33-.55,2.32-1.38,2.97-2.49,.67-1.11,1-2.48,1-4.12s-.33-3.06-1-4.19c-.65-1.14-1.65-2-3-2.58-1.33-.6-3.01-.9-5.05-.9h-7.12v41.3H3.23Zm26.96-22.72l12.41,22.72h-11.65l-12.14-22.72h11.38Zm34.36,23.45c-3.85,0-7.17-.78-9.95-2.34-2.76-1.58-4.89-3.8-6.39-6.68-1.5-2.89-2.24-6.31-2.24-10.26s.75-7.23,2.24-10.14c1.5-2.91,3.6-5.18,6.31-6.8,2.73-1.63,5.93-2.44,9.61-2.44,2.47,0,4.77,.4,6.9,1.19,2.15,.78,4.01,1.96,5.61,3.53,1.61,1.58,2.86,3.56,3.75,5.95,.89,2.37,1.34,5.15,1.34,8.34v2.85h-31.62v-6.44h21.84c0-1.5-.33-2.82-.97-3.97-.65-1.15-1.55-2.06-2.71-2.71-1.14-.67-2.46-1-3.97-1s-2.97,.37-4.19,1.1c-1.2,.72-2.15,1.68-2.83,2.9-.68,1.2-1.03,2.54-1.05,4.02v6.12c0,1.85,.34,3.45,1.02,4.8,.7,1.35,1.68,2.39,2.95,3.12,1.27,.73,2.77,1.1,4.51,1.1,1.15,0,2.21-.16,3.17-.49,.96-.33,1.78-.81,2.46-1.46,.68-.65,1.2-1.45,1.56-2.39l9.6,.63c-.49,2.31-1.49,4.32-3,6.05-1.5,1.71-3.43,3.04-5.8,4-2.36,.94-5.08,1.41-8.17,1.41Zm40.88,0c-3.84,0-7.13-.81-9.9-2.44-2.75-1.64-4.86-3.92-6.34-6.83-1.46-2.91-2.19-6.26-2.19-10.04s.74-7.2,2.22-10.09c1.5-2.91,3.62-5.18,6.36-6.8,2.75-1.64,6.01-2.46,9.8-2.46,3.27,0,6.13,.59,8.58,1.78,2.45,1.19,4.4,2.85,5.83,5,1.43,2.15,2.22,4.66,2.37,7.56h-9.8c-.28-1.87-1.01-3.37-2.19-4.51-1.17-1.15-2.71-1.73-4.61-1.73-1.61,0-3.02,.44-4.22,1.32-1.19,.86-2.11,2.12-2.78,3.78-.67,1.66-1,3.66-1,6.02s.32,4.42,.97,6.09c.67,1.67,1.6,2.95,2.8,3.83,1.2,.88,2.61,1.32,4.22,1.32,1.19,0,2.25-.24,3.19-.73,.96-.49,1.75-1.19,2.36-2.12,.63-.94,1.05-2.07,1.24-3.39h9.8c-.16,2.86-.94,5.38-2.34,7.56-1.38,2.16-3.29,3.85-5.73,5.07-2.44,1.22-5.32,1.83-8.65,1.83Zm47.39-16.67v-21.5h10.39v37.45h-9.97v-6.8h-.39c-.85,2.19-2.25,3.96-4.22,5.29-1.95,1.33-4.33,2-7.14,2-2.5,0-4.7-.57-6.61-1.71s-3.39-2.75-4.46-4.85c-1.06-2.1-1.59-4.61-1.61-7.53v-23.84h10.38v21.99c.02,2.21,.61,3.96,1.78,5.24,1.17,1.28,2.74,1.93,4.7,1.93,1.25,0,2.42-.28,3.51-.85,1.09-.59,1.97-1.45,2.63-2.58,.68-1.14,1.02-2.54,1-4.22Zm18.69,15.94v-37.45h10.07v6.53h.39c.68-2.32,1.83-4.08,3.44-5.27,1.61-1.2,3.46-1.8,5.56-1.8,.52,0,1.08,.03,1.68,.1s1.13,.15,1.58,.27v9.22c-.49-.15-1.16-.28-2.02-.39-.86-.11-1.65-.17-2.37-.17-1.53,0-2.89,.33-4.1,1-1.19,.65-2.13,1.56-2.83,2.73-.68,1.17-1.02,2.52-1.02,4.05v21.19h-10.38Zm59.25-26.77l-9.51,.59c-.16-.81-.51-1.54-1.05-2.19-.54-.67-1.24-1.19-2.12-1.58-.86-.41-1.89-.61-3.1-.61-1.61,0-2.97,.34-4.07,1.02-1.11,.67-1.66,1.56-1.66,2.68,0,.89,.36,1.65,1.07,2.27,.71,.62,1.94,1.11,3.68,1.49l6.78,1.37c3.64,.75,6.35,1.95,8.14,3.61,1.79,1.66,2.68,3.84,2.68,6.53,0,2.45-.72,4.61-2.17,6.46-1.43,1.85-3.4,3.3-5.9,4.34-2.49,1.02-5.36,1.54-8.61,1.54-4.96,0-8.91-1.03-11.85-3.1-2.93-2.08-4.64-4.91-5.14-8.48l10.21-.54c.31,1.51,1.06,2.67,2.24,3.46,1.19,.78,2.71,1.17,4.56,1.17s3.28-.35,4.39-1.05c1.12-.72,1.69-1.63,1.71-2.75-.02-.94-.41-1.71-1.19-2.32-.78-.62-1.98-1.09-3.61-1.41l-6.48-1.29c-3.66-.73-6.38-2-8.17-3.8-1.77-1.8-2.66-4.1-2.66-6.9,0-2.41,.65-4.48,1.95-6.22,1.32-1.74,3.16-3.08,5.53-4.02,2.39-.94,5.18-1.41,8.39-1.41,4.73,0,8.45,1,11.17,3,2.73,2,4.32,4.72,4.78,8.17Zm24.31,27.5c-3.79,0-7.06-.8-9.82-2.41-2.75-1.63-4.87-3.88-6.36-6.78-1.5-2.91-2.24-6.28-2.24-10.12s.75-7.25,2.24-10.14c1.5-2.91,3.62-5.17,6.36-6.78,2.76-1.63,6.04-2.44,9.82-2.44s7.05,.81,9.8,2.44c2.76,1.61,4.89,3.87,6.39,6.78,1.5,2.89,2.24,6.27,2.24,10.14s-.75,7.21-2.24,10.12c-1.5,2.89-3.62,5.15-6.39,6.78-2.75,1.61-6.01,2.41-9.8,2.41Zm.05-8.04c1.72,0,3.16-.49,4.31-1.46,1.15-.99,2.02-2.34,2.61-4.05,.6-1.71,.9-3.65,.9-5.83s-.3-4.12-.9-5.83c-.58-1.71-1.45-3.06-2.61-4.05-1.15-.99-2.59-1.49-4.31-1.49s-3.2,.5-4.39,1.49c-1.17,.99-2.06,2.34-2.66,4.05-.58,1.71-.88,3.65-.88,5.83s.29,4.12,.88,5.83c.6,1.71,1.49,3.06,2.66,4.05,1.19,.98,2.65,1.46,4.39,1.46Zm56.29-19.45l-9.51,.59c-.16-.81-.51-1.54-1.05-2.19-.54-.67-1.24-1.19-2.12-1.58-.86-.41-1.89-.61-3.1-.61-1.61,0-2.97,.34-4.07,1.02-1.11,.67-1.66,1.56-1.66,2.68,0,.89,.36,1.65,1.07,2.27,.72,.62,1.94,1.11,3.68,1.49l6.78,1.37c3.64,.75,6.35,1.95,8.14,3.61,1.79,1.66,2.68,3.84,2.68,6.53,0,2.45-.72,4.61-2.17,6.46-1.43,1.85-3.4,3.3-5.9,4.34-2.49,1.02-5.35,1.54-8.61,1.54-4.96,0-8.91-1.03-11.85-3.1-2.93-2.08-4.64-4.91-5.14-8.48l10.22-.54c.31,1.51,1.06,2.67,2.24,3.46,1.19,.78,2.71,1.17,4.56,1.17s3.28-.35,4.39-1.05c1.12-.72,1.69-1.63,1.71-2.75-.02-.94-.41-1.71-1.19-2.32-.78-.62-1.98-1.09-3.61-1.41l-6.48-1.29c-3.66-.73-6.38-2-8.17-3.8-1.77-1.8-2.66-4.1-2.66-6.9,0-2.41,.65-4.48,1.95-6.22,1.32-1.74,3.16-3.08,5.53-4.02,2.39-.94,5.18-1.41,8.39-1.41,4.73,0,8.45,1,11.17,3,2.73,2,4.32,4.72,4.78,8.17ZM1.26,472.49v-49.93H11.81v20.6h21.43v-20.6h10.53v49.93h-10.53v-20.62H11.81v20.62H1.26Zm75.04-15.94v-21.5h10.39v37.45h-9.97v-6.8h-.39c-.85,2.19-2.25,3.96-4.22,5.29-1.95,1.33-4.33,2-7.14,2-2.5,0-4.71-.57-6.61-1.71-1.9-1.14-3.39-2.75-4.46-4.85-1.06-2.1-1.59-4.61-1.61-7.53v-23.84h10.39v21.99c.02,2.21,.61,3.96,1.78,5.24,1.17,1.28,2.74,1.93,4.71,1.93,1.25,0,2.42-.28,3.51-.85,1.09-.58,1.97-1.45,2.63-2.58,.68-1.14,1.02-2.54,1-4.22Zm18.69,15.94v-37.45h9.9v6.61h.44c.78-2.19,2.08-3.92,3.9-5.19,1.82-1.27,4-1.9,6.53-1.9s4.75,.64,6.56,1.93c1.8,1.27,3.01,2.99,3.61,5.17h.39c.76-2.15,2.15-3.86,4.14-5.14,2.02-1.3,4.4-1.95,7.14-1.95,3.49,0,6.33,1.11,8.51,3.34,2.19,2.21,3.29,5.35,3.29,9.41v25.18h-10.36v-23.14c0-2.08-.55-3.64-1.66-4.68-1.11-1.04-2.49-1.56-4.14-1.56-1.89,0-3.36,.6-4.41,1.8-1.06,1.19-1.58,2.75-1.58,4.7v22.87h-10.07v-23.35c0-1.84-.53-3.3-1.58-4.39-1.04-1.09-2.41-1.63-4.12-1.63-1.15,0-2.19,.29-3.12,.88-.91,.57-1.63,1.37-2.17,2.41-.54,1.02-.8,2.23-.8,3.61v22.48h-10.39Zm73.29,.71c-2.39,0-4.52-.41-6.39-1.24-1.87-.85-3.35-2.09-4.44-3.73-1.07-1.66-1.61-3.72-1.61-6.19,0-2.08,.38-3.83,1.15-5.24,.76-1.41,1.8-2.55,3.12-3.41,1.32-.86,2.81-1.51,4.49-1.95,1.69-.44,3.46-.75,5.31-.93,2.18-.23,3.93-.44,5.27-.63,1.33-.21,2.3-.52,2.9-.93,.6-.41,.9-1.01,.9-1.8v-.15c0-1.54-.49-2.74-1.46-3.58-.96-.85-2.32-1.27-4.1-1.27-1.87,0-3.36,.41-4.46,1.24-1.11,.81-1.84,1.84-2.19,3.07l-9.6-.78c.49-2.28,1.45-4.24,2.88-5.9,1.43-1.67,3.27-2.96,5.53-3.85,2.28-.91,4.91-1.37,7.9-1.37,2.08,0,4.07,.24,5.97,.73,1.92,.49,3.62,1.24,5.1,2.27,1.5,1.02,2.67,2.34,3.53,3.95,.86,1.59,1.29,3.5,1.29,5.73v25.26h-9.85v-5.19h-.29c-.6,1.17-1.41,2.2-2.41,3.1-1.01,.88-2.22,1.57-3.63,2.07-1.41,.49-3.05,.73-4.9,.73Zm2.97-7.17c1.53,0,2.88-.3,4.05-.9,1.17-.62,2.09-1.45,2.75-2.49,.67-1.04,1-2.22,1-3.53v-3.97c-.33,.21-.77,.41-1.34,.58-.55,.16-1.18,.32-1.88,.46-.7,.13-1.4,.25-2.1,.37-.7,.1-1.33,.19-1.9,.27-1.22,.18-2.28,.46-3.19,.85-.91,.39-1.62,.92-2.12,1.58-.5,.65-.76,1.46-.76,2.44,0,1.41,.51,2.49,1.54,3.24,1.04,.73,2.36,1.1,3.95,1.1Zm36.56-15.19v21.65h-10.39v-37.45h9.9v6.61h.44c.83-2.18,2.22-3.9,4.17-5.17,1.95-1.28,4.32-1.93,7.09-1.93,2.6,0,4.87,.57,6.8,1.71,1.93,1.14,3.44,2.76,4.51,4.88,1.07,2.1,1.61,4.6,1.61,7.51v23.84h-10.39v-21.99c.02-2.29-.57-4.08-1.76-5.36-1.19-1.3-2.82-1.95-4.9-1.95-1.4,0-2.63,.3-3.71,.9-1.06,.6-1.89,1.48-2.49,2.63-.59,1.14-.89,2.51-.9,4.12Zm49.24,22.38c-3.79,0-7.06-.8-9.82-2.41-2.75-1.63-4.87-3.88-6.36-6.78-1.5-2.91-2.24-6.28-2.24-10.12s.75-7.25,2.24-10.14c1.5-2.91,3.62-5.17,6.36-6.78,2.76-1.62,6.04-2.44,9.82-2.44s7.05,.81,9.8,2.44c2.76,1.61,4.89,3.87,6.39,6.78,1.5,2.89,2.24,6.27,2.24,10.14s-.75,7.21-2.24,10.12c-1.5,2.89-3.62,5.15-6.39,6.78-2.75,1.61-6.01,2.41-9.8,2.41Zm.05-8.04c1.72,0,3.16-.49,4.31-1.46,1.15-.99,2.02-2.34,2.61-4.05,.6-1.71,.9-3.65,.9-5.83s-.3-4.12-.9-5.83c-.58-1.71-1.45-3.06-2.61-4.05-1.15-.99-2.59-1.49-4.31-1.49s-3.2,.5-4.39,1.49c-1.17,.99-2.06,2.34-2.66,4.05-.58,1.71-.88,3.65-.88,5.83s.29,4.12,.88,5.83c.6,1.71,1.49,3.06,2.66,4.05,1.19,.97,2.65,1.46,4.39,1.46Zm56.29-19.45l-9.51,.58c-.16-.81-.51-1.54-1.05-2.19-.54-.67-1.24-1.19-2.12-1.58-.86-.41-1.89-.61-3.1-.61-1.61,0-2.97,.34-4.07,1.02-1.11,.67-1.66,1.56-1.66,2.68,0,.89,.36,1.65,1.07,2.27,.72,.62,1.94,1.11,3.68,1.49l6.78,1.37c3.64,.75,6.35,1.95,8.14,3.61,1.79,1.66,2.68,3.84,2.68,6.53,0,2.45-.72,4.61-2.17,6.46-1.43,1.85-3.4,3.3-5.9,4.34-2.49,1.02-5.36,1.54-8.61,1.54-4.96,0-8.91-1.03-11.85-3.1-2.93-2.08-4.64-4.91-5.14-8.48l10.21-.54c.31,1.51,1.06,2.67,2.24,3.46,1.19,.78,2.71,1.17,4.56,1.17s3.28-.35,4.39-1.05c1.12-.71,1.69-1.63,1.71-2.75-.02-.94-.41-1.71-1.19-2.32-.78-.62-1.98-1.09-3.61-1.41l-6.48-1.29c-3.66-.73-6.38-2-8.17-3.8-1.77-1.8-2.66-4.1-2.66-6.9,0-2.41,.65-4.48,1.95-6.22,1.32-1.74,3.16-3.08,5.53-4.02,2.39-.94,5.18-1.41,8.39-1.41,4.73,0,8.45,1,11.17,3,2.73,2,4.32,4.72,4.78,8.17Z"/>
  <g>
    <path class="cls-3" d="M105.28,55.86c-14.07-4.75-16.72-8.49-16.72-22.93,0-5.2-.12-10.41,.04-15.61C88.91,6.87,95.72,.1,106.12,.07,127.55-.02,148.98-.03,170.41,.07c10.3,.05,16.77,6.36,17.2,16.78,.28,6.8,.24,13.61,.06,20.42-.3,11.35-6.73,17.77-18.08,17.94-11.81,.17-23.63-.14-35.44,.2-2.34,.07-5.24,1.63-6.8,3.43-4.07,4.66-7.28,10.06-11.39,14.69-1.56,1.76-5.04,3.48-6.86,2.87-1.78-.6-3.33-4.08-3.64-6.48-.57-4.53-.17-9.17-.17-14.05h-.01Zm11.58-1.61c4.51-12.6,14.54-10.11,23.57-10.16,9.41-.05,18.82-.07,28.23,0,5.41,.04,8.2-2.11,7.95-7.88-.25-5.99-.16-12.01-.02-18.01,.11-4.73-2.03-7.2-6.73-7.21-21.02-.04-42.04-.02-63.05-.02-4.67,0-7.08,2.43-7.15,7.01-.11,6.4-.08,12.81,0,19.21,.05,4.31,2.27,6.96,6.65,6.78,6.63-.28,11.01,1.56,10.59,10.28h-.02Z"/>
    <path class="cls-3" d="M165.93,115.61h21.66c5.85,.01,10.15,2.78,13.9,7.15,1.53,1.78,4.17,3.31,6.45,3.58,6.96,.82,9.12,4.62,5.25,10.59-4.42,6.8-9.15,13.07-9.99,21.9-.69,7.22-7.85,11.76-16.02,11.91-14.23,.24-28.48,.29-42.71,0-10.58-.22-17.12-7.07-17.36-17.56-.16-6.61-.13-13.24,0-19.85,.22-10.87,6.98-17.58,17.76-17.68,7.02-.07,14.04-.01,21.05,0v-.02Zm31.24,22.45c-1.1-1.75-2.23-4.35-4.07-6.27-1.97-2.08-4.56-4.94-6.97-5.02-13.62-.48-27.27-.24-40.91-.23-4.71,0-6.99,2.58-7.05,7.13-.08,6.42-.08,12.83,.01,19.25,.06,4,2.09,6.59,6.22,6.61,14.24,.11,28.48,.25,42.7-.22,2.08-.07,5.03-3.03,5.9-5.31,1.93-5.01,2.78-10.41,4.15-15.96v.02Z"/>
    <path class="cls-1" d="M67.24,65.58h-.3c-18.82,0-33.71,14.55-33.96,33.25-.12,8.72,3.45,17.41,9.82,23.85,6.39,6.48,15.08,10.18,23.87,10.18h.02c18.35-.01,33.36-15.04,33.45-33.49,.1-18.79-14.36-33.63-32.91-33.79Zm-21.72,33.54c0-5.85,2.28-11.32,6.43-15.37,3.97-3.89,9.17-6.02,14.7-6.02h.45c11.58,.24,20.93,9.92,20.85,21.58-.08,11.62-9.62,21.04-21.27,21.04h-.07c-11.81-.05-21.05-9.37-21.07-21.23h-.01Z"/>
    <path class="cls-1" d="M309.41,167.82c0-6.24,.01-12.46,.01-18.7v-6.2h-12.13v7.39c0,6.12,0,12.24,.01,18.37,.01,14.49,.04,29.48-.05,44.23-.06,10.23-5.53,16.32-15.43,17.2v-5.83c0-5.48,0-10.95,.02-16.44,.02-12.57,.06-25.56-.16-38.34-.24-14.59-11.99-26.36-26.76-26.8-6.98-.2-14.08-.16-20.96-.12l-4.95,.02c-7.26,.02-8.74,1.48-8.78,8.61-.04,6.95-.02,13.88-.02,21.03v8.87h-39.68c-8.76,.01-9.77,1.05-9.81,10.02-.01,2.72,0,5.45,0,8.2v3.12h-32.03v-14.22c0-2.35-.59-4.14-1.78-5.33s-3.01-1.81-5.51-1.79c-6.81,.05-13.75,.04-20.44,.02h-21.75v-9.09c0-7.57-.02-14.72,.04-21.91,.02-2.61-.58-4.49-1.84-5.74-1.25-1.25-3.11-1.83-5.67-1.81-3.72,.04-7.44,.02-11.16,.01-5.22-.01-10.62-.04-15.94,.11-13.06,.34-24.5,10.23-26.6,23.02-.46,2.8-.43,5.72-.4,8.54,0,.79,.02,1.58,.01,2.37-.02,13.35-.02,26.7-.01,40.06v13.4c-9.75-.7-15.36-6.89-15.42-17.06-.08-14.9-.07-30.05-.05-44.7,0-6.16,.01-12.33,.01-18.49v-6.93H.5l-.07,.52c-.05,.34-.11,.64-.16,.93-.11,.58-.2,1.13-.2,1.69,0,6.16-.02,12.31-.04,18.48-.04,16.83-.08,34.24,.12,51.35,.11,9.51,4.62,17.26,13.04,22.41,2.66,1.63,3.55,3.32,3.53,6.71-.1,14.08-.08,28.4-.07,42.24v21.19h12.24v-65.4h53.73v57.24c0,2.84,0,8.13,5.32,8.37,6.58,.3,13.1,.24,19.98,.18,2.83-.02,5.69-.05,8.61-.05h.6v-93.17h75.54v93.29h15.63c3.18,0,6.33,0,9.47-.02,7.48-.04,8.99-1.56,9.03-9.1,.06-11.07,.05-22.34,.04-33.24v-23.35h53.85v65.35h12.11v-20.24c-.01-14.35-.04-29.19,.16-43.78,.02-1.94,1.38-4.56,2.91-5.61,9.2-6.34,13.64-14.83,13.59-25.93-.07-15.04-.06-30.32-.05-45.11v-.04Zm-94.92,128.42h-9.69v-74.55c0-2.13,.52-3.68,1.59-4.74,1.23-1.22,3.21-1.76,6.11-1.79,12.63,.06,23.14,.05,33.1,0,7.25-.05,8.62-1.43,8.67-8.73,.05-8.15,.04-16.13,.02-24.58v-11.26h-12.11v32h-58.9v-9.32h24.36c1.72,0,3.44,0,5.16-.01,3.83-.01,7.79-.04,11.68,.04,2.71,.05,4.66-.57,5.98-1.88,1.32-1.31,1.96-3.27,1.94-5.99-.06-7.17-.05-14.23-.04-21.7v-8.76c2.4,0,4.77-.05,7.1-.1,5.73-.11,11.14-.22,16.55,.24,7.66,.65,13.49,7.33,13.57,15.55,.13,14.1,.11,27.89,.08,42.51,0,5.67-.02,11.36-.02,17.11-.4,.04-.79,.07-1.18,.11-1.19,.11-2.32,.2-3.46,.22-9.16,.02-18.32,.02-27.48,.01h-11.63c-10.15,0-11.42,1.32-11.42,11.74v53.91ZM55.31,170.51v.6c0,3.66,0,7.29-.02,10.92-.02,9.09-.06,18.48,.11,27.68,.08,4.88,4.31,5.45,7.51,5.45h.05c10.85-.02,22.07-.04,33.09,.01,7.16,.04,8.62,1.48,8.62,8.61,.02,22.67,.01,45.34,0,68,0,1.04-.06,2.05-.13,3.23-.02,.41-.05,.83-.07,1.28h-9.22c-.02-.41-.05-.83-.07-1.25-.08-1.4-.17-2.83-.17-4.27-.02-13.04-.02-26.07,0-39.11,0-1.59,0-3.07,.02-4.42,.06-8.75,.08-12.75-2.03-14.85-1.97-1.96-5.44-1.91-12.38-1.83-2.01,.02-4.32,.05-6.96,.04-6.68-.05-13.36-.05-20.04-.06-4.15,0-8.29,0-12.45-.02-.14,0-.35-.06-.71-.16-.17-.05-.36-.1-.6-.17,0-5.73-.01-11.44-.04-17.14-.04-14.21-.08-28.9,.13-43.3,.12-7.81,6.43-14.33,14.36-14.81,5.18-.31,10.35-.24,15.83-.17,2.28,.04,4.59,.06,6.96,.07v8.5c0,6.93-.01,13.75,0,20.56,.02,7.69,1.69,9.35,9.38,9.37,9.32,.02,18.65,.01,28.13,0h11.42v9.27h-58.54v-32.01h-12.18Z"/>
    <path class="cls-1" d="M242.72,132.86h.06c18.24,0,33.35-14.96,33.68-33.38,.17-8.79-3.2-17.19-9.49-23.65-6.31-6.5-14.67-10.14-23.55-10.23-9.31-.07-17.91,3.3-24.29,9.56-6.28,6.16-9.77,14.55-9.85,23.59-.07,9.14,3.43,17.73,9.85,24.21,6.31,6.37,14.69,9.88,23.57,9.91h.01Zm.26-12.5c-11.74,.08-21.33-9.27-21.46-20.92-.07-5.83,2.14-11.3,6.24-15.42,4.02-4.06,9.35-6.28,15.01-6.28h.06c11.59,.04,21.05,9.58,21.09,21.27,.05,11.86-9.16,21.23-20.95,21.36h.01Z"/>
    <path class="cls-2" d="M149.57,88.17h10.33v10.37h-10.33v-10.37Z"/>
    <path class="cls-2" d="M127.48,88.21h10.24v10.39h-10.24v-10.39Z"/>
    <path class="cls-2" d="M171.66,98.47v-10.18h10.39v10.18h-10.39Z"/>
    <path class="cls-3" d="M165.41,22.31v10.71h-46.15c-6.53,0-9.2-3.57-8-10.71h54.16Z"/>
    <path class="cls-3" d="M182.05,137.85v10.2h-32.5v-10.2h32.5Z"/>
  </g>
</svg>