<?xml version="1.0" encoding="UTF-8"?>
<svg id="Capa_2" data-name="Capa 2" xmlns="http://www.w3.org/2000/svg" xmlns:xlink="http://www.w3.org/1999/xlink" viewBox="0 0 327.27 488.35">
  <defs>
    <style>
      .cls-1 {
        fill: #283641;
      }

      .cls-2 {
        clip-path: url(#clippath);
      }

      .cls-3 {
        fill: none;
      }

      .cls-4 {
        fill: #293641;
      }

      .cls-5 {
        fill: #dc9949;
      }
    </style>
    <clipPath id="clippath">
      <rect class="cls-3" x="1.6" width="324.07" height="330.83"/>
    </clipPath>
  </defs>
  <path class="cls-4" d="M23.62,379.07c-.16-1.62-.85-2.88-2.07-3.77-1.22-.9-2.87-1.34-4.96-1.34-1.42,0-2.62,.2-3.59,.6-.98,.39-1.73,.93-2.25,1.63-.51,.7-.76,1.48-.76,2.37-.03,.74,.13,1.38,.46,1.93,.35,.55,.82,1.02,1.42,1.42,.6,.39,1.3,.73,2.09,1.02,.79,.28,1.63,.52,2.53,.72l3.69,.88c1.79,.4,3.44,.94,4.94,1.61,1.5,.67,2.8,1.49,3.89,2.47,1.1,.98,1.95,2.13,2.55,3.45,.62,1.32,.93,2.84,.94,4.55-.01,2.51-.66,4.7-1.93,6.54-1.26,1.83-3.08,3.26-5.46,4.27-2.37,1-5.22,1.5-8.57,1.5s-6.21-.51-8.67-1.52c-2.45-1.02-4.36-2.52-5.74-4.51-1.36-2.01-2.08-4.49-2.15-7.44H8.41c.09,1.38,.49,2.53,1.18,3.45,.71,.91,1.65,1.6,2.83,2.07,1.19,.45,2.53,.68,4.03,.68s2.75-.21,3.83-.64c1.1-.43,1.95-1.02,2.55-1.79,.6-.76,.9-1.64,.9-2.63,0-.92-.27-1.7-.82-2.33-.54-.63-1.32-1.16-2.37-1.61-1.03-.44-2.29-.84-3.79-1.2l-4.47-1.12c-3.46-.84-6.2-2.16-8.21-3.95-2.01-1.79-3-4.21-2.99-7.24-.01-2.49,.65-4.66,1.99-6.52,1.35-1.86,3.2-3.31,5.56-4.35,2.35-1.04,5.03-1.57,8.03-1.57s5.71,.52,7.99,1.57c2.29,1.04,4.07,2.49,5.34,4.35,1.27,1.86,1.93,4.01,1.97,6.46h-8.33Zm28.62,29.88c-3.17,0-5.9-.64-8.19-1.93-2.27-1.3-4.03-3.13-5.26-5.5-1.23-2.38-1.85-5.2-1.85-8.45s.62-5.95,1.85-8.35c1.23-2.39,2.96-4.26,5.2-5.6,2.25-1.34,4.88-2.01,7.91-2.01,2.03,0,3.93,.33,5.68,.98,1.77,.64,3.3,1.61,4.62,2.91,1.32,1.3,2.35,2.93,3.09,4.9,.74,1.95,1.1,4.24,1.1,6.86v2.35h-26.03v-5.3h17.98c0-1.23-.27-2.32-.8-3.27-.54-.95-1.28-1.69-2.23-2.23-.94-.55-2.03-.82-3.27-.82s-2.45,.3-3.45,.9c-.99,.59-1.77,1.38-2.33,2.39-.56,.99-.85,2.09-.86,3.31v5.04c0,1.53,.28,2.84,.84,3.95,.58,1.11,1.38,1.97,2.43,2.57,1.04,.6,2.28,.9,3.71,.9,.95,0,1.82-.13,2.61-.4s1.46-.67,2.03-1.2c.56-.54,.99-1.19,1.28-1.97l7.91,.52c-.4,1.9-1.22,3.56-2.47,4.98-1.23,1.4-2.82,2.5-4.78,3.29-1.94,.78-4.18,1.16-6.72,1.16Zm33.61,11.6c-2.77,0-5.14-.38-7.12-1.14-1.97-.75-3.53-1.77-4.69-3.07-1.16-1.3-1.92-2.76-2.27-4.37l7.91-1.06c.24,.62,.62,1.19,1.14,1.73,.52,.54,1.21,.96,2.07,1.28,.87,.33,1.93,.5,3.17,.5,1.86,0,3.39-.45,4.59-1.36,1.22-.9,1.83-2.4,1.83-4.51v-5.64h-.36c-.37,.86-.94,1.67-1.69,2.43-.75,.76-1.71,1.38-2.89,1.87-1.18,.48-2.58,.72-4.21,.72-2.31,0-4.42-.54-6.32-1.61-1.89-1.08-3.39-2.74-4.51-4.96-1.11-2.23-1.67-5.06-1.67-8.47s.57-6.41,1.71-8.75c1.14-2.34,2.65-4.09,4.54-5.26,1.9-1.16,3.98-1.75,6.24-1.75,1.73,0,3.17,.29,4.33,.88,1.16,.58,2.1,1.3,2.81,2.17,.72,.86,1.28,1.7,1.67,2.53h.32v-5.18h8.49v31.12c0,2.62-.64,4.82-1.93,6.58s-3.06,3.09-5.34,3.97c-2.26,.9-4.86,1.34-7.81,1.34Zm.18-19.06c1.38,0,2.54-.34,3.49-1.02,.96-.7,1.7-1.69,2.21-2.97,.52-1.3,.78-2.85,.78-4.66s-.25-3.37-.76-4.7c-.51-1.34-1.24-2.37-2.21-3.11s-2.13-1.1-3.51-1.1-2.59,.38-3.55,1.14c-.96,.75-1.69,1.79-2.19,3.13-.49,1.34-.74,2.88-.74,4.64s.25,3.32,.74,4.62c.51,1.28,1.24,2.28,2.19,2.99,.96,.7,2.15,1.04,3.55,1.04Zm41.46-6.26v-17.7h8.55v30.82h-8.21v-5.6h-.32c-.7,1.81-1.85,3.26-3.47,4.35-1.61,1.1-3.56,1.65-5.88,1.65-2.06,0-3.87-.47-5.44-1.4-1.57-.94-2.79-2.27-3.67-3.99-.87-1.73-1.31-3.79-1.32-6.2v-19.62h8.55v18.1c.01,1.82,.5,3.26,1.46,4.31,.96,1.06,2.25,1.59,3.87,1.59,1.03,0,1.99-.23,2.89-.7,.9-.48,1.62-1.19,2.17-2.13,.56-.94,.84-2.09,.82-3.47Zm15.39,13.12v-30.82h8.29v5.38h.32c.56-1.91,1.5-3.36,2.83-4.33,1.32-.99,2.85-1.48,4.57-1.48,.43,0,.89,.03,1.38,.08,.49,.05,.93,.13,1.3,.22v7.58c-.4-.12-.96-.23-1.67-.32-.71-.09-1.36-.14-1.95-.14-1.26,0-2.38,.27-3.37,.82-.98,.54-1.75,1.28-2.33,2.25-.56,.96-.84,2.07-.84,3.33v17.44h-8.55Zm23.12,0v-30.82h8.55v30.82h-8.55Zm4.29-34.79c-1.27,0-2.36-.42-3.27-1.26-.9-.86-1.34-1.88-1.34-3.07s.45-2.19,1.34-3.03c.91-.86,2-1.28,3.27-1.28s2.35,.43,3.25,1.28c.91,.84,1.36,1.85,1.36,3.03s-.45,2.21-1.36,3.07c-.9,.84-1.98,1.26-3.25,1.26Zm22.46,35.3c-2.34,0-4.46-.6-6.36-1.81-1.89-1.22-3.38-3-4.49-5.36-1.1-2.37-1.65-5.27-1.65-8.71s.57-6.47,1.71-8.81c1.14-2.35,2.65-4.11,4.53-5.28,1.9-1.18,3.98-1.77,6.24-1.77,1.73,0,3.16,.29,4.31,.88,1.16,.58,2.1,1.3,2.81,2.17,.72,.86,1.27,1.7,1.65,2.53h.26v-15.45h8.53v41.09h-8.43v-4.94h-.36c-.4,.86-.97,1.71-1.71,2.55-.72,.83-1.67,1.52-2.83,2.07-1.15,.55-2.56,.82-4.21,.82Zm2.71-6.8c1.38,0,2.54-.37,3.49-1.12,.96-.76,1.7-1.83,2.21-3.19,.52-1.36,.78-2.96,.78-4.8s-.25-3.42-.76-4.78c-.51-1.35-1.24-2.39-2.21-3.13-.96-.74-2.13-1.1-3.51-1.1s-2.59,.38-3.55,1.14c-.96,.76-1.69,1.82-2.19,3.17s-.74,2.92-.74,4.7,.25,3.38,.74,4.76c.51,1.36,1.24,2.43,2.19,3.21,.96,.76,2.15,1.14,3.55,1.14Zm30.65,6.88c-1.97,0-3.72-.34-5.26-1.02-1.54-.7-2.76-1.72-3.65-3.07-.88-1.36-1.32-3.06-1.32-5.1,0-1.71,.31-3.15,.94-4.31,.63-1.16,1.48-2.1,2.57-2.81,1.08-.71,2.31-1.24,3.69-1.61,1.39-.36,2.85-.62,4.37-.76,1.79-.19,3.24-.36,4.33-.52,1.1-.17,1.89-.43,2.39-.76,.49-.33,.74-.83,.74-1.48v-.12c0-1.27-.4-2.25-1.2-2.95-.79-.7-1.91-1.04-3.37-1.04-1.54,0-2.76,.34-3.67,1.02-.91,.67-1.51,1.51-1.81,2.53l-7.91-.64c.4-1.87,1.19-3.49,2.37-4.86,1.18-1.38,2.7-2.43,4.55-3.17,1.87-.75,4.04-1.12,6.5-1.12,1.71,0,3.35,.2,4.92,.6,1.58,.4,2.98,1.02,4.19,1.87,1.23,.84,2.2,1.93,2.91,3.25,.71,1.31,1.06,2.88,1.06,4.72v20.79h-8.11v-4.27h-.24c-.49,.96-1.16,1.81-1.99,2.55-.83,.72-1.83,1.29-2.99,1.71-1.16,.4-2.51,.6-4.03,.6Zm2.45-5.9c1.26,0,2.37-.25,3.33-.74,.96-.51,1.72-1.19,2.27-2.05,.55-.86,.82-1.83,.82-2.91v-3.27c-.27,.17-.64,.33-1.1,.48-.45,.13-.97,.26-1.54,.38-.58,.11-1.15,.21-1.73,.3-.58,.08-1.1,.15-1.57,.22-1,.15-1.88,.38-2.63,.7-.75,.32-1.33,.76-1.75,1.3-.41,.54-.62,1.2-.62,2.01,0,1.16,.42,2.05,1.26,2.67,.86,.6,1.94,.9,3.25,.9Zm32.9,5.82c-2.34,0-4.46-.6-6.36-1.81-1.89-1.22-3.38-3-4.49-5.36-1.1-2.37-1.65-5.27-1.65-8.71s.57-6.47,1.71-8.81c1.14-2.35,2.65-4.11,4.53-5.28,1.9-1.18,3.98-1.77,6.24-1.77,1.73,0,3.16,.29,4.31,.88,1.16,.58,2.1,1.3,2.81,2.17,.72,.86,1.27,1.7,1.65,2.53h.26v-15.45h8.53v41.09h-8.43v-4.94h-.36c-.4,.86-.97,1.71-1.71,2.55-.72,.83-1.67,1.52-2.83,2.07-1.15,.55-2.56,.82-4.21,.82Zm2.71-6.8c1.38,0,2.54-.37,3.49-1.12,.96-.76,1.7-1.83,2.21-3.19,.52-1.36,.78-2.96,.78-4.8s-.25-3.42-.76-4.78c-.51-1.35-1.24-2.39-2.21-3.13-.96-.74-2.13-1.1-3.51-1.1s-2.59,.38-3.55,1.14c-.96,.76-1.69,1.82-2.19,3.17-.49,1.35-.74,2.92-.74,4.7s.25,3.38,.74,4.76c.51,1.36,1.24,2.43,2.19,3.21,.96,.76,2.15,1.14,3.55,1.14Zm48.98,6.9c-3.17,0-5.9-.64-8.19-1.93-2.27-1.3-4.03-3.13-5.26-5.5-1.23-2.38-1.85-5.2-1.85-8.45s.62-5.95,1.85-8.35c1.23-2.39,2.96-4.26,5.2-5.6,2.25-1.34,4.88-2.01,7.91-2.01,2.03,0,3.93,.33,5.68,.98,1.77,.64,3.3,1.61,4.62,2.91,1.32,1.3,2.35,2.93,3.09,4.9,.74,1.95,1.1,4.24,1.1,6.86v2.35h-26.03v-5.3h17.98c0-1.23-.27-2.32-.8-3.27-.54-.95-1.28-1.69-2.23-2.23-.94-.55-2.03-.82-3.27-.82s-2.45,.3-3.45,.9c-.99,.59-1.77,1.38-2.33,2.39-.56,.99-.85,2.09-.86,3.31v5.04c0,1.53,.28,2.84,.84,3.95,.58,1.11,1.38,1.97,2.43,2.57,1.04,.6,2.28,.9,3.71,.9,.95,0,1.82-.13,2.61-.4,.79-.27,1.47-.67,2.03-1.2s.99-1.19,1.28-1.97l7.91,.52c-.4,1.9-1.22,3.56-2.47,4.98-1.23,1.4-2.82,2.5-4.78,3.29-1.94,.78-4.18,1.16-6.72,1.16ZM61.47,476.15v-41.09h8.69v16.96h17.64v-16.96h8.67v41.09h-8.67v-16.98h-17.64v16.98h-8.69Zm42,0v-30.82h8.55v30.82h-8.55Zm4.29-34.79c-1.27,0-2.36-.42-3.27-1.26-.9-.86-1.34-1.88-1.34-3.07s.45-2.19,1.34-3.03c.91-.86,2-1.28,3.27-1.28s2.35,.43,3.25,1.28c.91,.84,1.36,1.85,1.36,3.03s-.45,2.21-1.36,3.07c-.9,.84-1.98,1.26-3.25,1.26Zm24.99,46.99c-2.77,0-5.14-.38-7.12-1.14-1.97-.75-3.53-1.77-4.69-3.07-1.16-1.3-1.92-2.76-2.27-4.37l7.91-1.06c.24,.62,.62,1.19,1.14,1.73,.52,.54,1.21,.96,2.07,1.28,.87,.33,1.93,.5,3.17,.5,1.86,0,3.39-.45,4.59-1.36,1.22-.9,1.83-2.4,1.83-4.51v-5.64h-.36c-.37,.86-.94,1.67-1.69,2.43-.75,.76-1.71,1.38-2.89,1.87-1.18,.48-2.58,.72-4.21,.72-2.31,0-4.42-.54-6.32-1.61-1.89-1.08-3.39-2.74-4.51-4.96-1.11-2.23-1.67-5.06-1.67-8.47s.57-6.41,1.71-8.75c1.14-2.34,2.65-4.09,4.54-5.26,1.9-1.16,3.98-1.75,6.24-1.75,1.73,0,3.17,.29,4.33,.88,1.16,.58,2.1,1.3,2.81,2.17,.72,.86,1.28,1.7,1.67,2.53h.32v-5.18h8.49v31.12c0,2.62-.64,4.82-1.93,6.58-1.28,1.77-3.06,3.09-5.34,3.97-2.26,.9-4.86,1.34-7.81,1.34Zm.18-19.06c1.38,0,2.54-.34,3.49-1.02,.96-.7,1.7-1.69,2.21-2.97,.52-1.3,.78-2.85,.78-4.65s-.25-3.37-.76-4.7c-.51-1.34-1.24-2.37-2.21-3.11-.96-.74-2.13-1.1-3.51-1.1s-2.59,.38-3.55,1.14c-.96,.75-1.69,1.79-2.19,3.13-.49,1.34-.74,2.88-.74,4.64s.25,3.32,.74,4.61c.51,1.28,1.24,2.28,2.19,2.99,.96,.7,2.15,1.04,3.55,1.04Zm21.69,6.86v-30.82h8.55v30.82h-8.55Zm4.29-34.79c-1.27,0-2.36-.42-3.27-1.26-.9-.86-1.34-1.88-1.34-3.07s.45-2.19,1.34-3.03c.91-.86,2-1.28,3.27-1.28s2.35,.43,3.25,1.28c.91,.84,1.36,1.85,1.36,3.03s-.45,2.21-1.36,3.07c-.9,.84-1.98,1.26-3.25,1.26Zm25.15,35.4c-3.17,0-5.9-.64-8.19-1.93-2.27-1.3-4.03-3.13-5.26-5.5-1.23-2.38-1.85-5.2-1.85-8.45s.62-5.95,1.85-8.35,2.96-4.26,5.2-5.6c2.25-1.34,4.88-2.01,7.91-2.01,2.03,0,3.93,.33,5.68,.98,1.77,.64,3.3,1.61,4.62,2.91,1.32,1.3,2.35,2.93,3.09,4.9,.74,1.95,1.1,4.24,1.1,6.86v2.35h-26.03v-5.3h17.98c0-1.23-.27-2.32-.8-3.27-.54-.95-1.28-1.69-2.23-2.23-.94-.55-2.03-.82-3.27-.82s-2.45,.3-3.45,.9c-.99,.59-1.77,1.38-2.33,2.39-.56,.99-.85,2.09-.86,3.31v5.04c0,1.52,.28,2.84,.84,3.95,.58,1.11,1.38,1.97,2.43,2.57,1.04,.6,2.28,.9,3.71,.9,.95,0,1.82-.13,2.61-.4,.79-.27,1.47-.67,2.03-1.2,.56-.54,.99-1.19,1.28-1.97l7.91,.52c-.4,1.9-1.22,3.56-2.47,4.98-1.23,1.4-2.82,2.5-4.78,3.29-1.94,.78-4.18,1.16-6.72,1.16Zm28.27-18.42v17.82h-8.55v-30.82h8.15v5.44h.36c.68-1.79,1.83-3.21,3.43-4.25,1.61-1.06,3.55-1.59,5.84-1.59,2.14,0,4.01,.47,5.6,1.4,1.59,.94,2.83,2.27,3.71,4.01,.88,1.73,1.32,3.79,1.32,6.18v19.62h-8.55v-18.1c.01-1.89-.47-3.36-1.44-4.41-.98-1.07-2.32-1.61-4.03-1.61-1.15,0-2.17,.25-3.05,.74-.87,.49-1.55,1.22-2.05,2.17-.48,.94-.73,2.07-.74,3.39Zm40.65,18.42c-3.17,0-5.9-.64-8.19-1.93-2.27-1.3-4.03-3.13-5.26-5.5-1.23-2.38-1.85-5.2-1.85-8.45s.62-5.95,1.85-8.35,2.96-4.26,5.2-5.6c2.25-1.34,4.88-2.01,7.91-2.01,2.03,0,3.93,.33,5.68,.98,1.77,.64,3.3,1.61,4.61,2.91,1.32,1.3,2.35,2.93,3.09,4.9,.74,1.95,1.1,4.24,1.1,6.86v2.35h-26.02v-5.3h17.98c0-1.23-.27-2.32-.8-3.27-.54-.95-1.28-1.69-2.23-2.23-.94-.55-2.03-.82-3.27-.82s-2.45,.3-3.45,.9c-.99,.59-1.77,1.38-2.33,2.39-.56,.99-.85,2.09-.86,3.31v5.04c0,1.52,.28,2.84,.84,3.95,.58,1.11,1.38,1.97,2.43,2.57,1.04,.6,2.28,.9,3.71,.9,.95,0,1.82-.13,2.61-.4,.79-.27,1.46-.67,2.03-1.2,.56-.54,.99-1.19,1.28-1.97l7.91,.52c-.4,1.9-1.22,3.56-2.47,4.98-1.23,1.4-2.82,2.5-4.78,3.29-1.94,.78-4.18,1.16-6.72,1.16Z"/>
  <g class="cls-2">
    <g>
      <path class="cls-1" d="M319.71,163.07c-4.66-4.38-11.02-5.77-17.49-3.8-3.02,.92-5.69,2.91-8.27,4.82-.55,.41-1.11,.82-1.68,1.23v-59.39c0-9.22-2.09-15.54-6.38-19.32-4.11-3.63-10.25-4.94-18.75-3.99-1.81-12.97-6.4-19.1-15.24-20.44-4.23-.64-5.19-2.62-6.54-6.08C232.33,22.77,200,.22,164.92,0h-.56c-36.97,0-69.52,22.45-83.01,57.33-1.37,3.56-2.24,3.97-2.21,3.97-11.95,1.56-18.27,8.76-18.8,21.37-.67-.05-1.34-.13-1.99-.19-2.46-.26-4.77-.49-7.12-.18-9.43,1.24-16.05,9.42-16.08,19.87-.05,15.51-.04,30.85-.03,47.06v16.92c-7.63-7.77-15.47-9.72-23.32-5.76-8.05,4.05-11.72,12.5-9.59,22.04,6.57,29.32,13.35,59.64,33.19,84.8,1.21,1.53,1.97,2.81,2.43,4.03,.18,.46,.36,.94,.53,1.41,.84,2.17,1.71,4.4,1.74,6.49,.17,9.72,.15,19.6,.13,29.17,0,3.95-.01,7.9-.01,11.85,0,9.42,1.22,10.62,10.83,10.62h77.02c5.26,0,8.08-.08,9.79-1.83,1.69-1.74,1.73-4.74,1.63-9.48-.61-31.06,1.62-56.37,6.99-79.65,2.93-12.67,2.9-26.18,2.86-39.23,0-4.56-.02-9.3,.1-13.89,.05-1.91-1.77-3.46-3.53-4.97-.69-.59-1.39-1.19-1.9-1.74l-.97-1.06-.93,1.1c-.47,.55-.97,1.08-1.48,1.61-1.26,1.33-2.57,2.72-3.39,4.42-.64,1.33-.51,2.82-.38,4.27,.06,.68,.11,1.33,.09,1.92-.22,4.41-.27,8.92-.31,13.29-.1,9.73-.19,19.78-2.23,29.19-6.56,30.41-9,55.5-7.68,78.96,.06,1.14-.06,2.33-.19,3.5-.01,.14-.02,.28-.04,.42H52.94c0-3.45-.03-6.86-.04-10.27-.05-9.54-.09-18.56,.14-27.76,.17-6.46-1.31-11.46-4.63-15.72-19.58-25.05-27.69-54.86-33.54-83.36-1.07-5.18-.22-7.53,3.13-8.67,3.79-1.28,6.33,.22,8.24,4.86,.6,1.46,1.18,2.92,1.76,4.4,1.83,4.64,3.74,9.44,6.21,13.87,1.72,3.08,4.93,6.92,8.77,8.46,21.88,8.78,37.36,23.09,47.32,43.73l.29,.6c1.12,2.35,2.38,5.01,4.86,5.83,1.45,.47,3.11,.23,4.93-.74,5.59-3,3.21-7.81,1.63-10.99l-.34-.68c-10.71-21.97-27.24-37.92-49.13-47.42-3.76-1.63-4.84-3.24-4.8-7.19,.17-18.64,.14-37.59,.13-55.91,0-6.79-.01-13.59-.01-20.38,0-.9-.01-1.81-.04-2.72-.05-2.33-.1-4.55,.18-6.73,.27-2.21,1.21-4.03,2.57-4.99,1.01-.72,2.19-.92,3.53-.62,2.42,.55,4.88,3.9,6.49,6.11,.36,.49,.23,1.86,.11,2.96-.06,.64-.13,1.31-.13,1.94v12.85c.01,18.15,.03,36.31-.03,54.46,0,3.46,.73,5.78,2.25,7.1,1.15,.97,2.65,1.32,4.46,1.03,2.32-.38,3.86-3.46,5.22-6.17,.19-.38,.38-.77,.56-1.12,.6-1.15,.47-2.51,.34-3.7-.05-.45-.09-.9-.09-1.32V83.5c0-3.69,.28-6.53,3.46-7.91-2.53,16.28-1.38,29.03,3.59,39.95,5.91,13,5.79,26.08,5.69,38.72-.03,2.83-.01,5.67,0,8.5,0,3.31,.03,6.73-.03,10.09-.04,2.65,.08,5.65,1.91,7.49,1.08,1.09,2.64,1.64,4.58,1.6,6.36-.09,6.31-5.83,6.29-9.26-.05-6.24-.04-12.4-.03-18.92v-5.81c9.62,7.56,15.52,15.05,13.04,26.97-.36,1.72,1.32,3.28,3.11,4.94,.65,.6,1.31,1.22,1.78,1.76l.94,1.09,.97-1.06c.51-.56,1.08-1.1,1.69-1.67,1.48-1.38,3-2.81,3.67-4.71,.69-1.97,.56-4.15,.41-6.46-.02-.38-.05-.78-.08-1.18,26.35,12.46,52.19,12.49,78.88,.1v.92c.01,1.81,.03,3.36-.03,4.9-.11,3.33,.6,5.71,2.14,7.06,1.17,1.03,2.7,1.4,4.57,1.09,2.67-.45,5.13-4.77,5.79-7.58,.55-2.27,.45-4.64,.34-6.92-.06-1.37-.11-2.79-.04-4.13,.19-2.88,.84-3.94,1.21-4.31,2.93-2.92,6.1-5.69,9.45-8.62,.66-.58,1.32-1.15,2-1.76v5.64c0,6.65,.03,12.95-.04,19.26-.02,2.33-.08,8.54,6.25,8.65,1.93,.03,3.45-.5,4.55-1.58,1.79-1.78,2-4.59,1.99-6.85-.03-4.1,0-8.22,0-12.32,.03-6.47,.06-13.17-.1-19.76-.19-7.59,.97-13.9,3.64-19.83,2.86-6.37,4.7-13.08,5.27-19.4,.61-6.6,.47-13.35,.34-19.87-.05-2.44-.1-4.95-.11-7.44l.53-.15c.29,.69,.61,1.37,.93,2.03,1.01,2.13,1.95,4.14,2.01,6.09,.31,8.99,.25,18.15,.2,27.03-.01,3.37-.04,6.74-.04,10.12v14.74c-.01,12.82-.03,26.08,.03,39.1,.01,3.55,1.53,6.63,3.84,7.85,1.54,.81,3.27,.67,4.75-.36,2.41-1.69,3.93-5.65,3.96-8.36,.11-10.13,.11-20.44,.13-30.4,0-12.73,.01-25.88,.24-38.82,.05-2.82,2.13-6.78,4.28-8.15,1.49-.95,3-1.04,4.38-.28,2.32,1.28,3.81,4.64,3.82,8.56,.01,9.35,0,18.71,0,28.05,0,17.91-.03,36.42,.11,54.64,.02,4-1.04,5.62-4.76,7.23-22.16,9.58-38.9,25.91-49.74,48.55-1.13,2.36-2.16,5.1-1.29,7.5,.55,1.49,1.77,2.65,3.63,3.46,5.55,2.41,7.93-2.62,9.22-5.32,9.97-21.01,26.15-36.03,48.08-44.63,3.72-1.46,6.81-5.31,8.33-8.15,1.65-3.12,3.02-6.42,4.34-9.63,1.48-3.58,2.99-7.27,4.9-10.63,.93-1.63,4.79-3.18,6.89-2.77,.94,.18,2.76,3.12,3.46,6.13,.27,1.15-.18,2.64-.64,4.21-.27,.9-.55,1.81-.7,2.74-5.44,31.28-16.35,57.65-33.35,80.63-2.88,3.88-3.32,9.67-3.39,11.99-.27,9.88-.22,19.95-.18,29.68,.01,3.33,.02,6.67,.04,10.01h-73.84c0-2.49-.02-4.94-.04-7.37-.05-6.4-.09-12.44,.09-18.56,.42-13.98-.79-25.56-3.83-36.48-5.28-19.03-7.38-39.22-6.43-61.73,.03-.55,.08-1.13,.13-1.69,.18-1.99,.36-4.04-.41-5.83-.74-1.76-2.18-3.08-3.56-4.35-.57-.53-1.11-1.01-1.59-1.54l-.93-.99-.93,1c-.48,.51-1.15,1.08-1.79,1.63-1.68,1.41-3.41,2.88-3.39,4.72,.08,4.3,.04,8.72,0,12.98-.11,12.29-.23,25.01,2.33,37,6.33,29.59,8.82,56.67,7.61,82.78-.02,.54-.01,1.08,0,1.61,0,.53,.03,1.05,0,1.58-.17,2.82,.41,4.9,1.77,6.35,1.43,1.51,3.63,2.21,6.77,2.23,30.25-.12,57.11-.1,82.1,0h.09c3,0,5.16-.71,6.57-2.14,1.46-1.49,2.11-3.68,2.06-6.91-.08-4.69-.04-9.47,0-14.1,.06-6.95,.13-14.13-.2-21.19-.34-7.4,1.52-13.97,6.03-21.33,1.87-3.05,3.88-6.12,5.83-9.06,7.17-10.9,14.58-22.17,17.1-35.99,1.38-7.49,3.36-15.01,5.3-22.29,1.29-4.86,2.62-9.9,3.77-14.9,1.74-7.63-.25-15.05-5.36-19.85l.06-.09ZM163.95,12.82h.38c41.16,.21,74.56,34.21,74.46,75.8-.1,41.65-33.86,75.48-75.3,75.48h-.15c-19.87-.04-38.61-7.95-52.77-22.28-14.26-14.45-22.07-33.56-21.99-53.85,.08-20,7.96-38.83,22.19-53.05,14.27-14.26,33.15-22.09,53.17-22.09Z"/>
      <path class="cls-4" d="M26.07,35.55c2.34,2.64,4.48,4.03,5.09,5.9,2.3,7.18,6.01,12.96,12.64,16.95,3.98,2.4,4.09,6.31,.11,8.77-6.34,3.91-10.12,9.36-12.55,16.28-.7,1.99-3.49,4.83-4.89,4.62-2.08-.33-4.66-2.72-5.46-4.83-2.5-6.62-5.98-12.03-12.18-15.8-4.29-2.6-4.34-6.6-.1-9.17,6.42-3.88,10.03-9.46,12.37-16.38,.7-2.06,2.8-3.64,4.96-6.32h0Zm.09,20.44c-2.11,2.67-3.77,4.76-5.54,6.99,2.01,2.26,3.76,4.23,5.73,6.46,2.01-2.53,3.67-4.6,5.37-6.76-1.85-2.22-3.44-4.14-5.56-6.69Z"/>
      <path class="cls-4" 4.37,5.36,6.4,2.34,7.21,6.24,12.81,12.77,16.87,4,2.49,3.7,6.4-.24,8.77-6.42,3.86-10.03,9.42-12.48,16.32-.69,1.95-3.35,4.42-5.09,4.42s-4.37-2.5-5.05-4.46c-2.46-6.88-6.06-12.44-12.46-16.33-4.23-2.56-4.1-6.53,.27-9.17,6.23-3.76,9.75-9.17,12.06-15.86,.73-2.12,2.62-3.83,4.88-6.97h0Zm-5.32,27.59c2.09,2.37,3.85,4.35,5.82,6.59,2-2.5,3.65-4.58,5.44-6.81-1.99-2.26-3.74-4.23-5.68-6.42-1.93,2.31-3.55,4.22-5.59,6.64h.01Z"/>
      <path class="cls-4" d="M301.04,40.27c2.48,3.17,d="M163.34,255.8c2.47,2.86,4.71,4.54,4.78,5.24,6.86,2.32,6.95,6.03,12.45,12.41,16.36,4.24,2.6,4.12,6.5-.25,9.15-6.21,3.77-9.66,9.21-12.08,15.85-.74,2.01-3.41,4.88-4.84,4.69-2.06-.3-4.71-2.65-5.51-4.76-2.51-6.6-5.92-12.05-12.14-15.81-4.54-2.74-4.43-6.69,.27-9.54,6.02-3.65,9.37-8.94,11.7-15.36,.83-2.27,2.81-4.12,5.19-7.46h.01Zm-5.55,27.74c2.09,2.37,3.84,4.35,5.82,6.59,2-2.5,3.65-4.58,5.44-6.81-2-2.26-3.74-4.23-5.68-6.42-1.94,2.31-3.55,4.22-5.59,6.64h.01Z"/>
      <path class="cls-5" d="M208.91,70.15c-18.56,18.71-37.08,37.39-55.17,55.62-11.33-11.44-23.11-23.32-34.91-35.22,4.49-4.15,9.74-8.99,16.24-14.97,3.42,3.8,7.66,8.74,12.18,13.44,5.4,5.62,7.06,5.58,12.44,.18,11.25-11.31,22.44-22.67,34-34.35,5.51,5.55,10.54,10.62,15.21,15.31Z"/>
    </g>
  </g>
</svg>