<?xml version="1.0" encoding="UTF-8"?>
<svg id="Capa_3" data-name="Capa 3" xmlns="http://www.w3.org/2000/svg" viewBox="0 0 338.58 488.35">
  <defs>
    <style>
      .cls-1 {
        fill: #293641;
      }

      .cls-2 {
        fill: #dc9949;
      }
    </style>
  </defs>
  <g>
    <path class="cls-1" d="M226.02,293.02c0,6.55,.05,12.18,0,17.82-.08,7.81-1.92,9.65-9.57,9.75-2.98,.04-5.96,0-9.7,0,0,7.7-.2,14.62,.07,21.51,.22,6.03-2.34,9.01-8.35,9.01-8.93,0-17.86,.04-26.79-.01-5.56-.03-8.41-2.64-8.28-8.47,.17-7.11,.04-14.24,.04-21.69H70.56c0,7.05,.05,13.91-.01,20.79-.07,7.06-1.95,9.2-8.71,9.35-8.71,.18-17.43,.03-26.13,.05-5.92,.03-8.79-2.65-8.59-8.79,.22-6.92,.05-13.84,.05-21.75-4.25,0-7.87-.04-11.48,0-5.14,.05-7.67-2.6-7.73-7.58-.09-8.5-.17-17,.09-25.48,.07-1.96,1.07-5.12,2.42-5.61,5.46-1.99,4.41-6.24,4.52-10.25,.34-10.79-1.66-21.9,5.2-33.27-3.62,0-6.28,.04-8.93,0-4.69-.09-7.33-2.35-7.35-7.22-.03-8.5-.03-16.98,0-25.48,.01-4.81,2.52-7.2,7.31-7.2,6.28-.01,12.56,0,19.89,0,0-4.17-.04-7.78,0-11.39,.27-18.85,12.9-31.44,31.69-31.49,19.82-.05,39.64,0,59.46,0h7.14V40.96c0-8.59,1.62-10.28,10.32-10.28,62.95-.03,125.89-.04,188.84,0,8.34,0,10.01,1.75,10.01,9.94v242.41c0,8.62-1.45,10-10.43,10.01-31.36,.01-62.73,0-94.09,0h-8.07l.04-.03Zm99.2-13.4V44.46h-120v48.37h82.68c1.74,0,4.01-.63,5.11,.22,2.31,1.79,5.3,4.24,5.56,6.68,.2,1.83-3.18,4.48-5.48,5.95-1.41,.89-3.82,.24-5.78,.24H142.91v173.7h182.31Zm-196.03-110.92c-23.32,0-45.95-.16-68.58,.08-7.78,.08-15.41,5.94-15.78,13.14-.73,14.24-.22,28.55-.22,42.76h84.59v-55.98Zm-.01,69.71h-6.58c-24.37,0-48.75-.03-73.12,.04-2.81,0-5.7,.13-8.41,.78-6.75,1.61-11.61,5.95-12.2,12.83-.76,8.99-.18,18.11-.18,27.34h100.48v-40.97h0Zm83.15,68.64v-13.54H21.45v13.54H212.34ZM142.9,80.58c12-11.78,24.41-23.95,36.96-36.27h-36.96v36.27Zm48.22-23.78c-11.99,11.91-24.3,24.12-35.94,35.68h35.94V56.81h0ZM40.86,320.92v16.54h16.16v-16.54h-16.16Zm152.37,.13h-16.25v16.47h16.25v-16.47ZM30.76,224.98v-12.84h-13.32v12.84h13.32Z"/>
    <path class="cls-1" d="M59.82,265.58c-2.39,0-5.06,.68-7.1-.18-2.25-.94-5.36-3.23-5.44-5.05-.1-2.34,2.14-6.58,3.88-6.86,5.67-.91,11.67-.97,17.36-.12,1.84,.27,4.48,4.51,4.25,6.65-.22,2.05-3.46,4.31-5.87,5.4-1.99,.89-4.69,.18-7.09,.18v-.03Z"/>
    <path class="cls-2" d="M285.98,146.57v14.63c0,24.8-.07,49.61,.07,74.42,.03,3.96-.74,5.88-5.32,5.87-31.55-.17-63.11-.09-94.65-.12-1.05,0-2.08-.27-3.54-.48v-94.31h103.45Z"/>
  </g>
  <path class="cls-1" d="M0,410.43v-12.58H59.28v12.58h-22.1v59.6h-15.09v-59.6H0Zm63.14,59.6v-54.14h14.56v9.45h.56c.99-3.36,2.64-5.9,4.97-7.61,2.33-1.74,5-2.61,8.04-2.61,.75,0,1.56,.05,2.43,.14,.87,.09,1.63,.22,2.29,.39v13.32c-.71-.21-1.68-.4-2.93-.56-1.25-.16-2.38-.25-3.42-.25-2.21,0-4.18,.48-5.92,1.45-1.72,.94-3.08,2.26-4.09,3.95-.99,1.69-1.48,3.64-1.48,5.85v30.63h-15.01Zm54.5,1.02c-3.45,0-6.53-.6-9.23-1.8-2.7-1.22-4.84-3.02-6.41-5.39-1.55-2.4-2.33-5.38-2.33-8.95,0-3.01,.55-5.53,1.66-7.58,1.1-2.04,2.61-3.69,4.51-4.93s4.07-2.19,6.49-2.82c2.44-.63,5.01-1.08,7.68-1.34,3.15-.33,5.69-.63,7.61-.92,1.93-.31,3.32-.75,4.19-1.34,.87-.59,1.3-1.46,1.3-2.61v-.21c0-2.23-.71-3.96-2.12-5.18-1.39-1.22-3.36-1.83-5.92-1.83-2.7,0-4.85,.6-6.45,1.8-1.6,1.17-2.66,2.66-3.17,4.44l-13.89-1.13c.7-3.29,2.09-6.13,4.16-8.53,2.07-2.42,4.74-4.28,8-5.57,3.29-1.32,7.1-1.97,11.42-1.97,3.01,0,5.89,.35,8.64,1.06,2.77,.7,5.23,1.8,7.37,3.28,2.16,1.48,3.87,3.38,5.11,5.71,1.25,2.3,1.87,5.06,1.87,8.28v36.52h-14.24v-7.51h-.42c-.87,1.69-2.03,3.18-3.49,4.48-1.46,1.27-3.21,2.27-5.25,3-2.04,.7-4.41,1.06-7.08,1.06Zm4.3-10.36c2.21,0,4.16-.43,5.85-1.3,1.69-.89,3.02-2.09,3.98-3.6,.96-1.5,1.45-3.21,1.45-5.11v-5.75c-.47,.31-1.12,.59-1.94,.85-.8,.23-1.7,.46-2.71,.67-1.01,.19-2.02,.36-3.03,.53-1.01,.14-1.93,.27-2.75,.39-1.76,.26-3.3,.67-4.62,1.23s-2.34,1.33-3.07,2.29c-.73,.94-1.09,2.11-1.09,3.52,0,2.04,.74,3.61,2.22,4.69,1.5,1.06,3.41,1.59,5.71,1.59Zm-1.62-51.78l7.47-16.04h13.89l-10.75,16.04h-10.61Zm68.57,6.98v11.28h-33.41v-11.28h33.41Zm-25.76,54.14v-58.05c0-3.92,.76-7.18,2.29-9.76,1.55-2.58,3.67-4.52,6.34-5.82,2.68-1.29,5.72-1.94,9.13-1.94,2.3,0,4.41,.18,6.31,.53,1.93,.35,3.36,.67,4.3,.95l-2.68,11.28c-.59-.19-1.32-.36-2.18-.53-.85-.16-1.72-.25-2.61-.25-2.21,0-3.75,.52-4.62,1.55-.87,1.01-1.3,2.43-1.3,4.26v57.77h-14.98Zm34.94,0v-54.14h15.02v54.14h-15.02Zm7.54-61.12c-2.23,0-4.15-.74-5.75-2.22-1.57-1.5-2.36-3.3-2.36-5.39s.79-3.84,2.36-5.32c1.6-1.5,3.51-2.26,5.75-2.26s4.13,.75,5.71,2.26c1.6,1.48,2.4,3.25,2.4,5.32s-.8,3.89-2.4,5.39c-1.58,1.48-3.48,2.22-5.71,2.22Zm43.96,62.17c-5.55,0-10.32-1.17-14.31-3.52-3.97-2.37-7.03-5.66-9.16-9.87-2.12-4.21-3.17-9.05-3.17-14.52s1.07-10.41,3.21-14.59c2.16-4.21,5.23-7.48,9.2-9.83,3.97-2.37,8.69-3.56,14.17-3.56,4.72,0,8.86,.86,12.41,2.57,3.55,1.72,6.36,4.12,8.42,7.23,2.07,3.1,3.21,6.74,3.42,10.93h-14.17c-.4-2.7-1.46-4.88-3.17-6.52-1.69-1.67-3.91-2.5-6.66-2.5-2.33,0-4.36,.63-6.1,1.9-1.72,1.25-3.05,3.07-4.02,5.46-.96,2.4-1.45,5.3-1.45,8.71s.47,6.39,1.41,8.81c.96,2.42,2.31,4.26,4.05,5.53,1.74,1.27,3.77,1.9,6.1,1.9,1.72,0,3.25-.35,4.62-1.06,1.39-.7,2.53-1.73,3.42-3.07,.92-1.36,1.52-3,1.8-4.9h14.17c-.24,4.14-1.36,7.78-3.38,10.93-2,3.13-4.76,5.57-8.28,7.33-3.52,1.76-7.7,2.64-12.51,2.64Zm58.25,0c-5.47,0-10.21-1.16-14.2-3.49-3.97-2.35-7.04-5.62-9.2-9.8-2.16-4.21-3.24-9.08-3.24-14.63s1.08-10.48,3.24-14.66c2.16-4.21,5.23-7.47,9.2-9.8,3.99-2.35,8.73-3.52,14.2-3.52s10.2,1.17,14.17,3.52c3.99,2.33,7.07,5.59,9.23,9.8,2.16,4.18,3.24,9.07,3.24,14.66s-1.08,10.42-3.24,14.63c-2.16,4.18-5.24,7.45-9.23,9.8-3.97,2.33-8.69,3.49-14.17,3.49Zm.07-11.63c2.49,0,4.57-.7,6.24-2.11,1.67-1.43,2.93-3.38,3.77-5.85,.87-2.47,1.3-5.28,1.3-8.42s-.43-5.96-1.3-8.42c-.85-2.47-2.1-4.42-3.77-5.85-1.67-1.43-3.75-2.15-6.24-2.15s-4.63,.72-6.34,2.15c-1.69,1.43-2.97,3.38-3.84,5.85-.85,2.47-1.27,5.28-1.27,8.42s.42,5.96,1.27,8.42c.87,2.47,2.15,4.42,3.84,5.85,1.72,1.41,3.83,2.11,6.34,2.11Z"/>
</svg>