<svg width="7" height="7" viewBox="0 -3 7 15" fill="none" xmlns="http://www.w3.org/2000/svg">
<g clip-path="url(#clip0_338_109)">
<path d="M3.49959 6.99944C2.68432 6.99944 1.86932 7.00053 1.05406 6.99916C0.631121 6.99834 0.29944 6.82482 0.114201 6.43864C0.0439855 6.29221 0.0142053 6.11568 0.00819456 5.95119C-0.00628575 5.5412 0.00245708 5.13038 0.00382315 4.72011C0.00464279 4.43164 0.176494 4.24224 0.433588 4.24142C0.691228 4.24088 0.867997 4.43082 0.86909 4.71464C0.870729 5.12518 0.86909 5.53545 0.86991 5.94599C0.870183 6.10199 0.899143 6.1321 1.05214 6.1321C2.68241 6.13265 4.31267 6.13265 5.94294 6.1321C6.09785 6.1321 6.12681 6.10254 6.12708 5.94791C6.1279 5.52833 6.1238 5.10876 6.12872 4.68919C6.13282 4.33119 6.47953 4.12784 6.78143 4.30164C6.90465 4.37252 6.9847 4.48528 6.98688 4.62213C6.99453 5.1052 7.01612 5.59073 6.98033 6.07134C6.93716 6.65239 6.52051 6.9978 5.93146 6.99889C5.12084 7.00053 4.31021 6.99916 3.49959 6.99916V6.99944Z" fill="#293641"/>
<path d="M3.934 4.42583C3.99056 4.37437 4.02443 4.34591 4.05558 4.31498C4.29136 4.08015 4.52633 3.8445 4.76238 3.60967C4.93232 3.4408 5.20308 3.4367 5.36455 3.59927C5.53694 3.77307 5.5435 4.03882 5.37192 4.21289C5.05172 4.53749 4.73178 4.86264 4.40338 5.17876C3.90367 5.66019 3.14523 5.67086 2.63651 5.19682C2.29991 4.88317 1.97807 4.55282 1.65622 4.22384C1.48136 4.04512 1.49038 3.77745 1.66141 3.60967C1.82042 3.45367 2.09391 3.45722 2.26658 3.62472C2.49553 3.84696 2.71984 4.07413 2.94661 4.29883C2.97775 4.32976 3.01136 4.35795 3.07174 4.41242C3.07174 4.32867 3.07174 4.27666 3.07174 4.22494C3.06983 2.98839 3.06573 1.75184 3.06928 0.515286C3.06955 0.406903 3.09824 0.286751 3.15124 0.193421C3.24386 0.0300259 3.43211 -0.0312815 3.60041 0.0149728C3.78537 0.0658799 3.91487 0.218875 3.92963 0.40745C3.93345 0.457262 3.93181 0.507896 3.93181 0.557982C3.93263 1.7855 3.93345 3.01274 3.93427 4.24026C3.93427 4.29007 3.93427 4.34016 3.93427 4.42583H3.934Z" fill="#293641"/>
</g>
<defs>
<clipPath id="clip0_338_109">
<rect width="7" height="7" fill="white"/>
</clipPath>
</defs>
</svg>
