<svg width="7" height="7" viewBox="0 0 7 7" fill="none" xmlns="http://www.w3.org/2000/svg">
<g clip-path="url(#clip0_338_117)">
<path d="M0.00122621 6.24847C-0.00672055 5.89762 0.0132834 5.54924 0.202635 5.24149C0.294982 5.09132 0.405689 4.94719 0.529823 4.82228C1.99614 3.34859 3.47122 1.88397 4.93342 0.406165C5.38283 -0.048184 5.93115 -0.0797551 6.33452 0.107201C7.07521 0.450639 7.23004 1.40299 6.63485 2.00394C5.29788 3.35491 3.95022 4.69517 2.60667 6.03982C2.4776 6.16913 2.34497 6.29514 2.22056 6.42883C1.88351 6.79094 1.47494 6.99245 0.976485 6.99602C0.793984 6.99739 0.610661 7.00535 0.428981 6.99217C0.158791 6.97295 0.0110912 6.80851 0.00150024 6.53618C-0.0020621 6.44036 0.000952185 6.344 0.00122621 6.24819V6.24847ZM4.47909 2.08245C4.2015 2.36385 3.95926 2.6123 3.71401 2.858C2.85603 3.71811 1.99696 4.57767 1.13816 5.43695C0.97813 5.597 0.866875 5.77765 0.866875 6.01539C0.866875 6.10928 0.903321 6.13014 0.988543 6.13124C1.23078 6.13399 1.41301 6.02198 1.57743 5.85616C2.24029 5.18823 2.90618 4.52304 3.57097 3.85702C3.98091 3.44633 4.39222 3.03727 4.7986 2.62355C4.83012 2.59143 4.85779 2.50578 4.83943 2.48299C4.73174 2.34847 4.61007 2.22548 4.47854 2.08245H4.47909ZM5.06852 1.49303C5.20498 1.62261 5.32035 1.73929 5.44531 1.84416C5.47106 1.86557 5.55135 1.86118 5.57684 1.8373C5.73605 1.68795 5.89005 1.53229 6.03939 1.37306C6.16216 1.24211 6.16764 1.06724 6.06323 0.953306C5.95034 0.830316 5.7692 0.813295 5.63329 0.936285C5.44503 1.10649 5.27075 1.29235 5.06852 1.49303Z" fill="#293641"/>
</g>
<defs>
<clipPath id="clip0_338_117">
<rect width="7" height="7" fill="white"/>
</clipPath>
</defs>
</svg>
