<svg width="9" height="6" viewBox="0 -4 9 15" fill="none" xmlns="http://www.w3.org/2000/svg">
<g clip-path="url(#clip0_338_114)">
<path d="M4.46716 6.00033C2.67179 5.91351 1.21949 5.23921 0.276332 3.84213C-0.137659 3.22888 -0.0688362 2.57943 0.376055 1.98366C1.21422 0.860232 2.41335 0.194213 3.9264 0.0349939C5.57815 -0.13895 6.99253 0.348216 8.12214 1.41796C8.38866 1.67013 8.63621 1.95758 8.8023 2.2662C9.12043 2.85737 9.0509 3.45651 8.63445 4.00166C7.73905 5.17417 6.48339 5.83283 4.87412 5.96996C4.75193 5.98039 4.62938 5.98867 4.46716 6.00094V6.00033ZM4.50578 5.0174C4.52334 5.0174 4.54089 5.01863 4.55845 5.0174C4.6343 5.01096 4.70979 5.00299 4.78529 4.99716C6.04587 4.89899 7.01466 4.37439 7.71096 3.45958C7.94025 3.15832 7.95009 2.83712 7.71834 2.5377C6.87912 1.45324 5.71826 0.898579 4.20661 0.994294C2.93585 1.07467 1.97092 1.62933 1.27988 2.55243C1.06569 2.83865 1.06709 3.1485 1.28094 3.43503C2.03939 4.45078 3.12265 4.96985 4.50578 5.01771V5.0174Z" fill="#293641"/>
<path d="M4.50158 4.3037C3.68308 4.30216 3.00082 3.70425 3.00257 2.99037C3.00398 2.27558 3.68905 1.67889 4.50579 1.68042C5.32429 1.68196 6.00691 2.28018 6.00515 2.99375C6.00339 3.70854 5.31868 4.30523 4.50158 4.3037Z" fill="#293641"/>
</g>
<defs>
<clipPath id="clip0_338_114">
<rect width="9" height="6" fill="white"/>
</clipPath>
</defs>
</svg>
